<?xml version="1.0" encoding="utf-8"?>
<!-- Generator: Adobe Illustrator 18.1.1, SVG Export Plug-In . SVG Version: 6.00 Build 0)  -->
<svg version="1.1" xmlns="http://www.w3.org/2000/svg" xmlns:xlink="http://www.w3.org/1999/xlink" x="0px" y="0px"
	 viewBox="0 0 512 512" enable-background="new 0 0 512 512" xml:space="preserve">
<g>
	<path fill="#122377" d="M467.6,133.6c-10.6-8-49.7-34.3-104.4-34.3c-28.2,0-56.4,6.9-84,20.5c-7.3,3.6-15.1,5.4-23.2,5.4
		c-8.1,0-15.9-1.8-23.2-5.4c-27.6-13.6-55.8-20.5-84-20.5c-54.7,0-93.8,26.3-104.4,34.3c-4.8,3.6-7.6,9.2-7.6,15.3v241
		c0,5.2,2.1,10.1,5.8,13.8c3.6,3.5,8.3,5.4,13.4,5.4c2.5,0,5-0.5,7.4-1.5c14.6-6,45-16.1,85-16.1c31.7,0,63.5,6.3,94.5,18.7
		c4.2,1.7,8.7,2.6,13.2,2.6c4.4,0,8.8-0.8,12.9-2.4c33-12.9,65.9-19.5,97.8-19.5c39.4,0,67.9,10.1,81.4,16.1
		c2.5,1.1,5.1,1.7,7.8,1.7c10.6,0,19.2-8.6,19.2-19.2V148.9C475.2,142.8,472.4,137.2,467.6,133.6z M245,387.6
		c-31.7-11.9-64.2-18-96.6-18c-40.7,0-72.4,9.6-89.6,16.3V150.2c10.7-7.8,43.9-29,90-29c24.8,0,49.8,6.1,74.3,18.2
		c6.9,3.4,14.3,5.6,21.9,6.7V387.6z M453.2,385.2c-16.3-6.8-46.4-16.3-86.4-16.3c-32.7,0-66.2,6.4-99.9,18.8V146.2
		c7.6-1.1,15-3.4,21.9-6.7c24.6-12.1,49.6-18.2,74.3-18.2c46.1,0,79.3,21.2,90,29V385.2z"/>
	<path fill="#122377" d="M195.7,191c-43-19.6-78.1-7.1-91.3-0.8c-5.4,2.6-7.8,9.2-5.1,14.6c2.6,5.5,9.2,7.8,14.6,5.1
		c10.3-5,38.1-14.8,72.6,1c1.5,0.7,3,1,4.6,1c4.2,0,8.1-2.4,10-6.4C203.6,200.1,201.2,193.5,195.7,191z"/>
	<path fill="#122377" d="M195.7,248.4c-43-19.6-78.1-7.1-91.3-0.8c-5.4,2.6-7.8,9.2-5.1,14.6c2.6,5.5,9.2,7.8,14.6,5.1
		c10.3-5,38.1-14.8,72.6,1c1.5,0.7,3,1,4.6,1c4.2,0,8.1-2.4,10-6.4C203.6,257.4,201.2,250.9,195.7,248.4z"/>
	<path fill="#122377" d="M195.7,305.7c-43-19.7-78.1-7.1-91.3-0.8c-5.4,2.6-7.8,9.2-5.1,14.6c2.6,5.5,9.2,7.8,14.6,5.1
		c10.3-5,38.1-14.8,72.6,1c1.5,0.7,3,1,4.6,1c4.2,0,8.1-2.4,10-6.4C203.6,314.7,201.2,308.2,195.7,305.7z"/>
	<path fill="#122377" d="M313.8,191c-5.5,2.5-7.9,9-5.4,14.5c0.5,1,1,1.9,1.8,2.7c1.4,1.6,3.2,2.7,5.2,3.3c1,0.3,2,0.4,3.1,0.4
		c1.5,0,3.1-0.3,4.6-1c34.5-15.8,62.3-5.9,72.6-1c5.4,2.6,12,0.3,14.6-5.1c2.6-5.5,0.3-12-5.1-14.6
		C391.9,183.9,356.7,171.4,313.8,191z"/>
	<path fill="#122377" d="M405,247.6c-13.1-6.3-48.3-18.8-91.2,0.8c-5.5,2.5-7.9,9-5.4,14.5c1.8,4,5.8,6.4,10,6.4
		c1.5,0,3.1-0.3,4.6-1c34.5-15.8,62.3-5.9,72.6-1c5.4,2.6,12,0.3,14.6-5.1C412.8,256.7,410.5,250.2,405,247.6z"/>
	<path fill="#122377" d="M405,304.9c-13.1-6.3-48.3-18.8-91.2,0.8c-5.5,2.5-7.9,9-5.4,14.5c0.5,1,1,1.9,1.8,2.7
		c2.1,2.4,5.1,3.7,8.2,3.7c1.5,0,3.1-0.3,4.6-1c34.5-15.8,62.3-5.9,72.6-1c5.4,2.6,12,0.3,14.6-5.1
		C412.8,314.1,410.5,307.5,405,304.9z"/>
</g>
</svg>
