<?xml version="1.0" encoding="utf-8"?>
<!-- Generator: Adobe Illustrator 18.1.1, SVG Export Plug-In . SVG Version: 6.00 Build 0)  -->
<svg version="1.1" id="Artwork" xmlns="http://www.w3.org/2000/svg" xmlns:xlink="http://www.w3.org/1999/xlink" x="0px" y="0px"
	 viewBox="0 0 512 512" enable-background="new 0 0 512 512" xml:space="preserve">
<g>
	<path fill="#007000" d="M256,42.2c-118,0-214,96-214,214c0,118,96,214,214,214c118,0,214-96,214-214C470,138.2,374,42.2,256,42.2z
		 M378.2,206.1L251.3,355.1c-3.8,4.5-9.3,7.9-15.2,7.9c-0.4,0-0.7,0-1,0c-5.5,0-10.8-2.6-14.8-6.4l-63.9-61.8
		c-8.5-8.2-8.8-21.8-0.6-30.3c8.2-8.5,21.7-8.8,30.2-0.6l47.6,45.8l112.2-131.3c7.6-9,21.1-10,30.1-2.4
		C384.9,183.7,385.9,197.2,378.2,206.1z"/>
	<rect fill="none" width="512" height="512"/>
</g>
</svg>
