<?xml version="1.0" encoding="utf-8"?>
<!-- Generator: Adobe Illustrator 18.1.1, SVG Export Plug-In . SVG Version: 6.00 Build 0)  -->
<svg version="1.1" xmlns="http://www.w3.org/2000/svg" xmlns:xlink="http://www.w3.org/1999/xlink" x="0px" y="0px"
	 viewBox="0 0 27 27" enable-background="new 0 0 27 27" xml:space="preserve">
	<path fill="#007000" d="M9.2,22.3L9.2,22.3c-0.4,0-0.7-0.1-0.9-0.4l-5.9-5.7c-0.2-0.2-0.2-0.6,0-0.8l2.5-2.5
		c0.1-0.1,0.3-0.2,0.4-0.2h0c0.2,0,0.3,0.1,0.4,0.2l3.6,3.7l12-11.7c0.1-0.1,0.3-0.2,0.4-0.2c0.2,0,0.3,0.1,0.4,0.2l2.5,2.7
		c0.2,0.2,0.2,0.6,0,0.8L10.1,21.9C9.9,22.2,9.5,22.3,9.2,22.3z M3.6,15.7L9,21.1c0.1,0.1,0.1,0.1,0.2,0.1l0,0c0,0,0.1,0,0.1-0.1
		L23.4,8l-1.8-1.9L9.9,17.5c-0.3,0.3-0.9,0.3-1.2,0L5.3,14L3.6,15.7z"/>
</svg>
