<?xml version="1.0" encoding="utf-8"?>
<!-- Generator: Adobe Illustrator 18.1.1, SVG Export Plug-In . SVG Version: 6.00 Build 0)  -->
<svg version="1.1" id="Layer_1" xmlns="http://www.w3.org/2000/svg" xmlns:xlink="http://www.w3.org/1999/xlink" x="0px" y="0px"
	 viewBox="50 140 512 512" enable-background="new 50 140 512 512" xml:space="preserve">
<g>
	<g>
		<g>
			<defs>
				<rect id="SVGID_1_" x="50" y="140" width="512" height="512"/>
			</defs>
			<clipPath id="SVGID_2_">
				<use xlink:href="#SVGID_1_"  overflow="visible"/>
			</clipPath>
			<path clip-path="url(#SVGID_2_)" fill="#122377" d="M503,244.9c-1.1-4.9-5.4-8.4-10.4-8.4h-43.5c-2.5-15.2-7.1-30.8-14.8-47.1
				c-1.7-3.8-6-6.5-10.2-6.5H146.5c-3.7,0-7.5,2.1-9.4,5.2c-2,3.1-2.2,7.5-0.7,10.8c28.6,60.8,10.5,112-8.6,166.1
				c-19.7,56-40.1,113.8-7.6,182.8c1.7,3.7,6,6.4,10.1,6.4h43.1c2.6,16,7.4,31.5,14.7,47.1c1.7,3.8,6.1,6.5,10.3,6.5h265.1
				c6.3,0,12.2-3.1,15.9-8.2c3.7-5.2,4.6-11.9,2.4-17.9c-32-90.1-14.4-135.9,4.2-184.4C501.9,356.1,518.3,313.5,503,244.9
				 M136.9,532.8c-25-58.5-7.5-108.2,11-160.7c18.3-51.9,37.1-105.4,13.9-167.8h255.8c25.1,58.5,7.5,108.2-11,160.7
				c-18.3,51.9-37.2,105.4-13.9,167.8H136.9z M461,586.5H205c-4.6-10.7-7.8-21.4-9.9-32.3H408c3.6,0,7.5-2.1,9.5-5.2
				c1.9-3.1,2.2-7.5,0.7-10.8c-28.6-60.8-10.5-112,8.6-166.1c12.8-36.4,25.9-73.7,24.5-114.2H484c10.9,57.4-3,93.6-17.7,131.8
				C447.2,439.3,427.5,490.5,461,586.5"/>
		</g>
		<g>
			<defs>
				<rect id="SVGID_3_" x="50" y="140" width="512" height="512"/>
			</defs>
			<clipPath id="SVGID_4_">
				<use xlink:href="#SVGID_3_"  overflow="visible"/>
			</clipPath>
			<path clip-path="url(#SVGID_4_)" fill="#122377" d="M345.4,459.9h-75c-5.9,0-10.7,4.8-10.7,10.7c0,5.9,4.8,10.7,10.7,10.7h75
				c5.9,0,10.7-4.8,10.7-10.7C356.1,464.7,351.3,459.9,345.4,459.9"/>
		</g>
		<g>
			<defs>
				<rect id="SVGID_5_" x="50" y="140" width="512" height="512"/>
			</defs>
			<clipPath id="SVGID_6_">
				<use xlink:href="#SVGID_5_"  overflow="visible"/>
			</clipPath>
			<path clip-path="url(#SVGID_6_)" fill="#122377" d="M345.4,396h-75c-5.9,0-10.7,4.8-10.7,10.7c0,5.9,4.8,10.7,10.7,10.7h75
				c5.9,0,10.7-4.8,10.7-10.7S351.3,396,345.4,396"/>
		</g>
		<g>
			<defs>
				<rect id="SVGID_7_" x="50" y="140" width="512" height="512"/>
			</defs>
			<clipPath id="SVGID_8_">
				<use xlink:href="#SVGID_7_"  overflow="visible"/>
			</clipPath>
			<path clip-path="url(#SVGID_8_)" fill="#122377" d="M224.3,432.1c-5.3-4.1-10.7-6.4-23-9.4v-23c5.7-0.1,10.7,5.7,10.8,12.4h18.4
				c-1-15.7-11.3-25.7-29.2-27.5v-10h-7.6v10c-10,1.2-14.9,2.9-20.3,7.2c-6.5,5.1-9.7,12-9.7,20.9c0,13.8,7.5,21.6,25.2,26
				c1,0.3,1.8,0.4,2.2,0.5c1.1,0.4,1.7,0.6,1.8,0.6c0.3,0.1,0.4,0.1,0.8,0.3v26.3c-8.7-1.8-13.8-8-13.8-16.7v-0.4h-18.4
				c2,19.9,12.6,30.7,32.2,32.2v10.9h7.6v-10.9c12.2-1.2,18.8-4,25-10.5c4.8-5,7.3-11.2,7.3-18.3
				C233.7,444.1,230.4,436.9,224.3,432.1 M193.8,420.9c-9-2.4-11.6-4.7-11.6-10.4c0-6.4,4.4-10.5,11.6-10.8V420.9z M201.4,466.5
				v-24.2c10.8,3,14,5.7,14,11.5C215.3,460.6,210.6,464.9,201.4,466.5"/>
		</g>
		<g>
			<defs>
				<rect id="SVGID_9_" x="50" y="140" width="512" height="512"/>
			</defs>
			<clipPath id="SVGID_10_">
				<use xlink:href="#SVGID_9_"  overflow="visible"/>
			</clipPath>
			<path clip-path="url(#SVGID_10_)" fill="#122377" d="M370.2,246.3H220.4c-5.9,0-10.7,4.8-10.7,10.7v75.7
				c0,5.9,4.8,10.7,10.7,10.7h149.8c5.9,0,10.7-4.8,10.7-10.7V257C380.9,251.1,376.1,246.3,370.2,246.3 M359.6,322H231.1v-54.3
				h128.5V322z"/>
		</g>
	</g>
</g>
</svg>
