<?xml version="1.0" encoding="utf-8"?>
<!-- Generator: Adobe Illustrator 18.1.1, SVG Export Plug-In . SVG Version: 6.00 Build 0)  -->
<svg version="1.1" id="Artwork" xmlns="http://www.w3.org/2000/svg" xmlns:xlink="http://www.w3.org/1999/xlink" x="0px" y="0px"
	 viewBox="0 0 512 512" enable-background="new 0 0 512 512" xml:space="preserve">
	<g>
		<path fill="#122377" d="M437.3,55.6c-3.5-7.4-11-12.1-19.2-12.1h-307c-7.3,0-14.1,3.7-18,9.9c-3.9,6.2-4.4,13.9-1.2,20.5
			c30.2,63.8,11,117.8-9.4,175c-21.4,59.9-45.6,127.9-7.8,207.5c3.5,7.4,11,12.1,19.2,12.1h307c0.2,0,0.3,0,0.4,0
			c11.7,0,21.2-9.5,21.2-21.2c0-4.6-1.5-8.9-4-12.4c-28.1-62.3-9.1-115.5,11-171.7C450.9,203.2,475.1,135.3,437.3,55.6z
			 M389.5,248.9C370.9,301,350.1,359.3,370,426H107.9c-22.6-58.5-4.5-109.3,14.6-162.9C141.1,211,161.9,152.7,142,86h262.1
			C426.7,144.5,408.6,195.3,389.5,248.9z"/>
		<path fill="#122377" d="M361.5,128.2H202.4c-5.9,0-10.6,4.8-10.6,10.6s4.8,10.6,10.6,10.6h159.1c5.9,0,10.6-4.8,10.6-10.6
			S367.4,128.2,361.5,128.2z"/>
		<path fill="#122377" d="M350,206.8H237.5c-5.9,0-10.6,4.8-10.6,10.6s4.8,10.6,10.6,10.6H350c5.9,0,10.6-4.8,10.6-10.6
			S355.9,206.8,350,206.8z"/>
		<path fill="#122377" d="M328.7,282.9H216.2c-5.9,0-10.6,4.8-10.6,10.6s4.8,10.6,10.6,10.6h112.5c5.9,0,10.6-4.8,10.6-10.6
			S334.6,282.9,328.7,282.9z"/>
		<path fill="#122377" d="M312,362.8H152.9c-5.9,0-10.6,4.8-10.6,10.6S147,384,152.9,384H312c5.9,0,10.6-4.8,10.6-10.6
			S317.9,362.8,312,362.8z"/>
		<circle fill="#122377" cx="185.4" cy="217.1" r="20.3"/>
		<circle fill="#122377" cx="162.8" cy="294.4" r="20.3"/>
	</g>
</svg>
