<?xml version="1.0" encoding="utf-8"?>
<!-- Generator: Adobe Illustrator 18.1.1, SVG Export Plug-In . SVG Version: 6.00 Build 0)  -->
<svg version="1.1" id="Artwork" xmlns="http://www.w3.org/2000/svg" xmlns:xlink="http://www.w3.org/1999/xlink" x="0px" y="0px"
	 viewBox="0 0 24 24" enable-background="new 0 0 24 24" xml:space="preserve">
<line fill="none" stroke="#000000" stroke-linecap="round" stroke-linejoin="round" stroke-miterlimit="10" x1="6.4" y1="9.7" x2="9.8" y2="6.3"/>
<path d="M21.1,16.6c0-0.2-0.1-0.5-0.3-0.6L7.7,2.8C7.5,2.7,7.2,2.6,7,2.6c-0.3,0-0.5,0.1-0.7,0.3L2.9,6.4c-0.4,0.4-0.4,1,0,1.4
	L16,20.9c0.2,0.2,0.4,0.3,0.6,0.3l3.7,0.2c0,0,0,0,0.1,0c0.3,0,0.5-0.1,0.7-0.3c0.2-0.2,0.3-0.5,0.3-0.8L21.1,16.6z M7,5l1.8,1.8
	l-2.1,2L5,7L7,5z M17.2,19.2L16,18l2-2l1.2,1.2l0.2,2.2L17.2,19.2z"/>
<rect fill="none" width="24" height="24"/>
</svg>
