<?xml version="1.0" encoding="utf-8"?>
<!-- Generator: Adobe Illustrator 18.1.1, SVG Export Plug-In . SVG Version: 6.00 Build 0)  -->
<svg version="1.1" id="Artwork" xmlns="http://www.w3.org/2000/svg" xmlns:xlink="http://www.w3.org/1999/xlink" x="0px" y="0px"
	 viewBox="0 0 512 512" enable-background="new 0 0 512 512" xml:space="preserve">
<g>
	<path fill="#196ECF" d="M255.6,212.9c-23.8,0-43.1,19.4-43.1,43.1c0,23.8,19.4,43.1,43.1,43.1c23.8,0,43.2-19.4,43.2-43.1
		C298.8,232.2,279.4,212.9,255.6,212.9z"/>
	<path fill="#196ECF" d="M467.9,247.8c-2.1-4.9-52-119.8-211.9-119.8C95.1,128,46.1,243,44.1,247.9c-2.1,5.1-2.1,10.9-0.1,16
		c1.9,4.9,49.7,119.2,212,119.2c160.4,0,209.9-114,211.9-118.9C470.1,259,470.1,253,467.9,247.8z M255.6,341.8
		c-47.3,0-85.8-38.5-85.8-85.8s38.5-85.8,85.8-85.8c47.3,0,85.8,38.5,85.8,85.8S302.9,341.8,255.6,341.8z"/>
</g>
</svg>
