<?xml version="1.0" encoding="utf-8"?>
<!-- Generator: Adobe Illustrator 18.1.1, SVG Export Plug-In . SVG Version: 6.00 Build 0)  -->
<svg version="1.1" id="Layer_1" xmlns="http://www.w3.org/2000/svg" xmlns:xlink="http://www.w3.org/1999/xlink" x="0px" y="0px"
	 viewBox="0 0 20 27" enable-background="new 0 0 20 27" xml:space="preserve">
<g>
	<g>
		<defs>
			<rect id="SVGID_1_" x="-5.5" y="-2.5" width="31.4" height="31.4"/>
		</defs>
		<clipPath id="SVGID_2_">
			<use xlink:href="#SVGID_1_"  overflow="visible"/>
		</clipPath>
		<path clip-path="url(#SVGID_2_)" fill="#007000" d="M11.2,0.4c-0.6-0.5-1.5-0.5-2,0C7,2.3,2,7.2,2,11.7c0,5.2,3.1,9,7.5,9.3v4.6
			c0,0.4,0.3,0.7,0.7,0.7s0.7-0.3,0.7-0.7V21c4.4-0.3,7.5-4.1,7.5-9.3C18.3,7.2,13.3,2.3,11.2,0.4 M10.8,19.7v-3.2c0,0,0,0,0,0
			l3.3-1.4c0.3-0.1,0.5-0.5,0.3-0.9c-0.1-0.3-0.5-0.5-0.9-0.3l-2.7,1.2v-2.9c0,0,0,0,0,0l3.3-1.4c0.3-0.1,0.5-0.5,0.3-0.9
			c-0.1-0.3-0.5-0.5-0.9-0.3l-2.7,1.2V6.9c0-0.4-0.3-0.7-0.7-0.7S9.5,6.6,9.5,6.9v3.9L6.7,9.6C6.4,9.4,6,9.6,5.8,9.9
			c-0.1,0.3,0,0.7,0.3,0.9l3.3,1.4c0,0,0,0,0,0v2.9l-2.8-1.2c-0.3-0.1-0.7,0-0.9,0.3c-0.1,0.3,0,0.7,0.3,0.9l3.3,1.4c0,0,0,0,0,0
			v3.2c-3.6-0.3-6.2-3.6-6.2-8c0-4.1,5.1-8.9,6.7-10.3c0.1,0,0.1-0.1,0.2-0.1c0,0,0.1,0,0.2,0.1C11.9,2.8,17,7.6,17,11.7
			C17,16.1,14.4,19.3,10.8,19.7"/>
	</g>
</g>
</svg>
