<?xml version="1.0" encoding="utf-8"?>
<!-- Generator: Adobe Illustrator 18.1.1, SVG Export Plug-In . SVG Version: 6.00 Build 0)  -->
<svg version="1.1" xmlns="http://www.w3.org/2000/svg" xmlns:xlink="http://www.w3.org/1999/xlink" x="0px" y="0px"
	 viewBox="0 0 512 512" enable-background="new 0 0 512 512" xml:space="preserve">
	<path fill="#122377" d="M433.8,146.4h-4.3l0-0.1l-0.1,0.1h-345l-0.1-0.1l-0.1,0.1h-5.9c-5.4,0-9.8,4.4-9.8,9.8v199.6
		c0,5.4,4.4,9.8,9.8,9.8h355.5c5.4,0,9.8-4.4,9.8-9.8V156.3C443.6,150.8,439.2,146.4,433.8,146.4z M404.3,165.2L256.8,275.8
		L109.3,165.2H404.3z M87.1,172l96.8,72.6l-96.8,90.4V172z M101.8,346.9l97.4-90.9l49.2,36.9c2.5,1.9,5.5,2.8,8.4,2.8
		c3,0,6-0.9,8.4-2.8l48.6-36.4l96.9,90.5H101.8z M424.9,334.5L329,245l95.8-71.9V334.5z"/>
</svg>
