<?xml version="1.0" encoding="utf-8"?>
<!-- Generator: Adobe Illustrator 18.1.1, SVG Export Plug-In . SVG Version: 6.00 Build 0)  -->
<svg version="1.1" xmlns="http://www.w3.org/2000/svg" xmlns:xlink="http://www.w3.org/1999/xlink" x="0px" y="0px" width="25px" height="25px"
	 viewBox="0 0 512 512" enable-background="new 0 0 512 512" xml:space="preserve">
	<g>
		<path fill="#003DA1" d="M256,470c-7,0-13.5-3.1-17.8-8.6c-6.8-8.5-42.4-53.8-75.9-106.6c-43.3-68.2-65.2-119.9-65.2-153.9
			C97.1,113.3,168.4,42,256,42s158.9,71.3,158.9,158.9c0,80.9-126.6,242.4-141.1,260.5C269.5,466.9,263,470,256,470z"/>
		<path fill="#FFFFFF" d="M256,43.5c86.8,0,157.4,70.6,157.4,157.4c0,80.3-126.3,241.5-140.8,259.6c-4,5.1-10.2,8-16.6,8
			c-6.5,0-12.6-2.9-16.6-8C225,442.4,98.6,281.2,98.6,200.9C98.6,114.1,169.2,43.5,256,43.5 M256,40.5
			c-88.4,0-160.4,71.9-160.4,160.4c0,34.3,22,86.3,65.4,154.7c33.5,52.8,69.2,98.2,76,106.7c4.6,5.8,11.5,9.2,19,9.2s14.4-3.3,19-9.2
			c6.8-8.5,42.3-53.8,76-106.7c43.4-68.4,65.4-120.5,65.4-154.7C416.4,112.4,344.4,40.5,256,40.5L256,40.5z"/>
	</g>
</svg>
