<?xml version="1.0" encoding="utf-8"?>
<!-- Generator: Adobe Illustrator 18.1.1, SVG Export Plug-In . SVG Version: 6.00 Build 0)  -->
<svg version="1.1" xmlns="http://www.w3.org/2000/svg" xmlns:xlink="http://www.w3.org/1999/xlink" x="0px" y="0px"
	 viewBox="0 0 512 512" enable-background="new 0 0 512 512" xml:space="preserve">
	<g>
		<path fill="#D53704" d="M255.8,469.9c-6.8,0-13.1-3.1-17.5-8.5c-5.8-7.2-141.4-177.5-141.4-260.9c0-87.6,71.2-158.8,158.8-158.8
			c87.6,0,158.8,71.2,158.8,158.8c0,83.4-135.6,253.7-141.4,260.9C269,466.7,262.6,469.9,255.8,469.9z"/>
		<path fill="#FFFFFF" d="M255.7,42.7c87,0,157.8,70.8,157.8,157.8c0,80.5-126.7,242.2-141.2,260.3c-3.9,5.1-10.1,8.1-16.5,8.1
			c-6.5,0-12.6-3-16.7-8.1C224.6,442.7,97.9,281,97.9,200.5C97.9,113.5,168.7,42.7,255.7,42.7 M255.7,40.7
			c-88.1,0-159.8,71.7-159.8,159.8c0,34.2,22,86.2,65.5,154.6c35.2,55.5,72.1,101.8,76.2,106.9c4.5,5.6,11.2,8.8,18.3,8.8
			c7.1,0,13.8-3.3,18.1-8.9c4.1-5.1,40.9-51.4,76.1-106.9c43.4-68.4,65.5-120.5,65.5-154.6C415.5,112.4,343.8,40.7,255.7,40.7
			L255.7,40.7z"/>
		<path fill="#FFFFFF" d="M351.3,161.4c-1.3-4.1-4.8-7.1-9.1-7.7l-52.6-7.6l-23.5-47.7c-3.8-7.7-16.4-7.7-20.2,0L222.4,146l-52.6,7.6
			c-4.3,0.6-7.8,3.5-9.1,7.7c-1.3,4.1-0.2,8.5,2.9,11.5l38.1,37.1l-9,52.4c-0.6,3.3,0.4,6.6,2.5,9.1c3.3,3.9,9.4,5,13.8,2.7l47.1-24.7
			l47,24.7c1.6,0.9,3.5,1.3,5.3,1.3c3.3,0,6.4-1.4,8.6-4c2.1-2.6,3-5.9,2.5-9.1l-9-52.4l38.1-37.1
			C351.6,169.9,352.7,165.4,351.3,161.4z M217.7,245.1l6.8-39.4c0.4-2.1-0.3-4.2-1.8-5.7L194,172.2l39.5-5.7c2.1-0.3,3.9-1.6,4.8-3.5
			l17.7-35.8l17.7,35.8c0.9,1.9,2.7,3.2,4.8,3.5l39.5,5.7l-28.6,27.9c-1.5,1.5-2.2,3.6-1.9,5.7l6.8,39.4L261,227.5
			c-1.6-0.8-3.3-1.2-5-1.2c-1.7,0-3.4,0.4-5.1,1.2L217.7,245.1z"/>
	</g>
</svg>
