<?xml version="1.0" encoding="utf-8"?>
<!-- Generator: Adobe Illustrator 18.1.1, SVG Export Plug-In . SVG Version: 6.00 Build 0)  -->
<svg version="1.1" xmlns="http://www.w3.org/2000/svg" xmlns:xlink="http://www.w3.org/1999/xlink" x="0px" y="0px" width="25px" height="25px"
	 viewBox="0 0 512 512" enable-background="new 0 0 512 512" xml:space="preserve">
	<g>
		<path fill="#003DA1" d="M255.9,398.6c-78.6,0-142.6-64-142.6-142.6s64-142.6,142.6-142.6s142.6,64,142.6,142.6
			S334.5,398.6,255.9,398.6z"/>
		<path fill="#FFFFFF" d="M255.9,114.9c77.9,0,141.1,63.2,141.1,141.1s-63.2,141.1-141.1,141.1S114.8,333.9,114.8,256
			S178,114.9,255.9,114.9 M255.9,111.9c-38.5,0-74.7,15-101.9,42.2c-27.2,27.2-42.2,63.4-42.2,101.9s15,74.7,42.2,101.9
			c27.2,27.2,63.4,42.2,101.9,42.2s74.7-15,101.9-42.2c27.2-27.2,42.2-63.4,42.2-101.9s-15-74.7-42.2-101.9
			C330.5,126.9,294.4,111.9,255.9,111.9L255.9,111.9z"/>
	</g>
</svg>
