<?xml version="1.0" encoding="utf-8"?>
<!-- Generator: Adobe Illustrator 18.1.1, SVG Export Plug-In . SVG Version: 6.00 Build 0)  -->
<svg version="1.1" id="Artwork" xmlns="http://www.w3.org/2000/svg" xmlns:xlink="http://www.w3.org/1999/xlink" x="0px" y="0px"
	 viewBox="0 0 512 512" enable-background="new 0 0 512 512" xml:space="preserve">
<g>
	<path fill="#007000" d="M255.8,469.9c-6.8,0-13.1-3.1-17.5-8.5c-5.8-7.2-141.4-177.5-141.4-260.9c0-87.6,71.2-158.8,158.8-158.8
		s158.8,71.2,158.8,158.8c0,83.4-135.6,253.7-141.4,260.9C269,466.7,262.6,469.9,255.8,469.9z"/>
	<path fill="#FFFFFF" d="M255.7,42.7c87,0,157.8,70.8,157.8,157.8c0,80.5-126.7,242.2-141.2,260.3c-3.9,5.1-10.1,8.1-16.5,8.1
		c-6.5,0-12.6-3-16.7-8.1C224.6,442.7,97.9,281,97.9,200.5C97.9,113.5,168.7,42.7,255.7,42.7 M255.7,40.7
		c-88.1,0-159.8,71.7-159.8,159.8c0,34.2,22,86.2,65.5,154.6c35.2,55.5,72.1,101.8,76.2,106.9c4.5,5.6,11.2,8.8,18.3,8.8
		s13.8-3.3,18.1-8.9c4.1-5.1,40.9-51.4,76.1-106.9c43.4-68.4,65.5-120.5,65.5-154.6C415.5,112.4,343.8,40.7,255.7,40.7L255.7,40.7z"
		/>
</g>
</svg>
