<?xml version="1.0" encoding="utf-8"?>
<!-- Generator: Adobe Illustrator 18.1.1, SVG Export Plug-In . SVG Version: 6.00 Build 0)  -->
<svg version="1.1" id="Artwork" xmlns="http://www.w3.org/2000/svg" xmlns:xlink="http://www.w3.org/1999/xlink" x="0px" y="0px"
	 viewBox="0 0 512 512" enable-background="new 0 0 512 512" xml:space="preserve">
<g>
	<path fill="#007000" d="M256,402.6c-80.8,0-146.6-65.8-146.6-146.6S175.2,109.4,256,109.4S402.6,175.2,402.6,256
		S336.8,402.6,256,402.6z"/>
	<path fill="#FFFFFF" d="M256,110.4c80.3,0,145.6,65.3,145.6,145.6S336.3,401.6,256,401.6S110.4,336.3,110.4,256
		S175.7,110.4,256,110.4 M256,108.4c-81.4,0-147.6,66.2-147.6,147.6S174.6,403.6,256,403.6S403.6,337.4,403.6,256
		S337.4,108.4,256,108.4L256,108.4z"/>
</g>
</svg>
