<?xml version="1.0" encoding="utf-8"?>
<!-- Generator: Adobe Illustrator 18.1.1, SVG Export Plug-In . SVG Version: 6.00 Build 0)  -->
<svg version="1.1" id="Artwork" xmlns="http://www.w3.org/2000/svg" xmlns:xlink="http://www.w3.org/1999/xlink" x="0px" y="0px"
	 viewBox="0 0 512 512" enable-background="new 0 0 512 512" xml:space="preserve">
	<g>
		<path fill="#196ECF" d="M256.6,250.5l122.5-91.9l69.4-50.4c-2.7-0.8-5.5-1.2-8.4-1.2H71.9c-2.5,0-5,0.3-7.3,0.9L256.6,250.5z"/>
		<polygon fill="#196ECF" points="403.2,191.5 341.6,237.7 469,366.8 469,143.5 		"/>
		<path fill="#196ECF" d="M308.8,262.4l-35.7,26.8c-4.9,3.6-10.7,5.5-16.5,5.5c-5.8,0-11.7-1.8-16.5-5.5l-38-28.3L61.4,403.1
			c3.3,1.3,6.8,1.9,10.5,1.9h368.3c3,0,5.8-0.4,8.5-1.2L308.8,262.4z"/>
		<polygon fill="#196ECF" points="43,142.4 43,364.1 169.3,236.3 		"/>
	</g>
</svg>
