<?xml version="1.0" encoding="utf-8"?>
<!-- Generator: Adobe Illustrator 18.1.1, SVG Export Plug-In . SVG Version: 6.00 Build 0)  -->
<svg version="1.1" id="Artwork" xmlns="http://www.w3.org/2000/svg" xmlns:xlink="http://www.w3.org/1999/xlink" x="0px" y="0px"
	 viewBox="0 0 512 512" enable-background="new 0 0 512 512" xml:space="preserve">
<g>
	<path fill="#196ECF" d="M392.9,361.4c-0.5-0.4-1-0.8-1.5-1.2L338.5,321c-6.1-5-14-7.3-22.3-6.3c-5.1,0.8-8.4,2.8-14.5,6.6
		c-5.6,3.6-14.9,9.4-25.2,14.2c-44-37-65.6-86-65.7-149.3c14.6-3,32.8-7,36.8-9.1c7.1-3.8,12.3-10.4,14.2-17.8l19.1-69
		c3.1-13.3-3.6-27.1-16-32.7c-21.4-9.8-42.8-14-63.5-13c-45.9,2.6-72.2,30.6-77.3,36.5c-2.3,2.8-5.1,7.2-6.3,16.7
		c-22,97.1-13.1,281.4,159,363.7c6.8,3.8,15.9,6,24.7,6c1,0,1.9,0,2.8-0.1c22.9-1.3,65.7-12.4,95.2-72
		C405.2,383.9,402.5,369.9,392.9,361.4z"/>
</g>
</svg>
