<?xml version="1.0" encoding="utf-8"?>
<!-- Generator: Adobe Illustrator 18.1.1, SVG Export Plug-In . SVG Version: 6.00 Build 0)  -->
<svg version="1.1" id="Artwork" xmlns="http://www.w3.org/2000/svg" xmlns:xlink="http://www.w3.org/1999/xlink" x="0px" y="0px"
	 viewBox="0 0 512 512" enable-background="new 0 0 512 512" xml:space="preserve">
	<g>
		<path fill="#196ECF" d="M256.5,239.1c54.3,0,98.5-44.2,98.5-98.5c0-54.4-44.2-98.6-98.5-98.6c-54.4,0-98.6,44.2-98.6,98.6
			C158,194.9,202.2,239.1,256.5,239.1z"/>
		<path fill="#196ECF" d="M443.3,345.2c-43.6-53-114.3-84.6-189.3-84.6c-73.1,0-140.4,28.9-184.8,79.4c-3.4,3.9-5.2,8.9-5.2,14.1v94
			c0,11.8,9.3,21,21.1,21h341.8c11.8,0,21.1-9.2,21.1-21v-89.3C448,353.8,446.4,349,443.3,345.2z"/>
	</g>
</svg>
