<?xml version="1.0" encoding="utf-8"?>
<!-- Generator: Adobe Illustrator 18.1.1, SVG Export Plug-In . SVG Version: 6.00 Build 0)  -->
<svg version="1.1" xmlns="http://www.w3.org/2000/svg" xmlns:xlink="http://www.w3.org/1999/xlink" x="0px" y="0px"
	 viewBox="0 0 512 512" enable-background="new 0 0 512 512" xml:space="preserve">
 	<g>
		<path fill="#122377" d="M419.4,75.4c-3.2-6.7-9.9-10.9-17.3-10.9H125.4c-6.6,0-12.7,3.4-16.2,8.9c-3.5,5.6-3.9,12.5-1.1,18.5
			c27.3,57.5,9.9,106.2-8.5,157.7c-19.3,54-41.1,115.2-7,187c3.2,6.7,9.9,10.9,17.3,10.9h276.7c0.1,0,0.3,0,0.4,0
			c10.6,0,19.2-8.6,19.2-19.2c0-4.2-1.3-8-3.6-11.2c-25.3-56.2-8.2-104.1,9.9-154.7C431.7,208.4,453.5,147.2,419.4,75.4z M376.3,249.6
			c-16.8,47-35.5,99.5-17.6,159.7H122.5c-20.3-52.8-4-98.5,13.2-146.8c16.8-47,35.5-99.5,17.6-159.7h236.2
			C409.9,155.5,393.5,201.3,376.3,249.6z"/>
		<path fill="#122377" d="M185.4,220.9c9.6,0,14.3,1.1,18.7,4c6,4,9.2,10.4,9.2,18.5c0,7.3-2.6,13.1-7.6,17.4
			c-4.3,3.6-9.5,5.1-17.5,5.1h-15.8v25.3h-15.3v-70.2H185.4z M172.5,253.7h13.7c4.2,0,6.9-0.6,8.7-2.2c2.1-1.7,3.4-4.5,3.4-7.9
			s-1.4-6.2-3.9-7.9c-1.9-1.4-4.6-1.9-9-1.9h-12.8V253.7z"/>
		<path fill="#122377" d="M255.5,220.9c10.5,0,17.7,2.3,23.4,7.6c6.8,6.2,10.5,15.6,10.5,26.6c0,12.1-3.3,21.4-9.9,27.9
			c-5.9,5.9-12.5,8.1-23.8,8.1h-28.6v-70.2H255.5z M242.4,278.1h11.8c7.3,0,11-1.3,14.2-4.7c3.7-4,5.6-10.1,5.6-17.8
			c0-14.3-6.9-21.8-20.3-21.8h-11.3V278.1z"/>
		<path fill="#122377" d="M354.8,233.9h-34.1v16.3h29.7v12.1h-29.7v28.8h-15.3v-70.2h49.3V233.9z"/>
	</g>
</svg>
