<?xml version="1.0" encoding="utf-8"?>
<!-- Generator: Adobe Illustrator 18.1.1, SVG Export Plug-In . SVG Version: 6.00 Build 0)  -->
<svg version="1.1" xmlns="http://www.w3.org/2000/svg" xmlns:xlink="http://www.w3.org/1999/xlink" x="0px" y="0px"
	 viewBox="0 0 612 792" enable-background="new 0 0 612 792" xml:space="preserve">
	<g>
		<path fill="#196ECF" d="M124.9,577.1c-99.4-99.4-99.4-262.9,0-362.2s262.9-99.4,362.2,0s99.4,262.9,0,362.2
			S224.3,676.5,124.9,577.1z M469.5,232.5c-89.8-89.8-237.2-89.8-327,0s-89.8,237.2,0,327s237.2,89.8,327,0
			S559.2,322.3,469.5,232.5z"/>
			<polygon fill="#196ECF" points="431,412 431,383.2 318.8,383.2 318.8,271 290,271 290,383.2 177.8,383.2 177.8,412 290,412
				290,524.2 318.8,524.2 318.8,412 	"/>
	</g>
</svg>
