<?xml version="1.0" encoding="utf-8"?>
<!-- Generator: Adobe Illustrator 18.1.1, SVG Export Plug-In . SVG Version: 6.00 Build 0)  -->
<svg version="1.1" xmlns="http://www.w3.org/2000/svg" xmlns:xlink="http://www.w3.org/1999/xlink" x="0px" y="0px"
	 viewBox="0 0 512 512" enable-background="new 0 0 512 512" xml:space="preserve">
	<g>
		<path fill="#196ECF" d="M196.9,194.5c0.8-17.3,3-26.2,8.9-35.4c10-15.7,27.3-24.4,48.1-24.4
			c32.4,0,53.5,19.2,53.5,48.7c0,12.2-3,21.6-9.5,30.3c-3.8,5.7-4.9,6.5-20,21.4
			c-12.4,11.4-14.9,18.1-14.9,39.5H242c0.8-30,3-34.6,28.1-59.5c10.5-10.5,14.3-18.7,14.3-29.7
			c0-18.9-12.2-31.1-30.8-31.1c-22.2,0-33.8,13.3-35.7,40.3H196.9z M266.9,313.3c0,8.4-6.8,15.4-14.9,15.4
			c-7.6,0-14.4-7-14.4-15.4s6.8-15.4,14.6-15.4C260.4,297.9,266.9,304.9,266.9,313.3z"/>
		<path fill="#196ECF" d="M154.5,430.3L154.5,430.3c-5.6,0-10.1-4.5-10.1-10.1v-60.6
			c-49.9-24.1-81.9-74.6-81.9-130.4c0-81.3,66.1-147.4,147.4-147.4h92.2c81.3,0,147.4,66.1,147.4,147.4
			c0,79.8-64.9,144.7-144.7,144.7h-76.2L160.9,428C159.1,429.5,156.8,430.3,154.5,430.3z M209.9,101.1
			c-70.6,0-128.1,57.5-128.1,128.1c0,50.1,29.7,95.3,75.7,115.2c1.6,0.7,3,1.8,4,3.2l0.3,0.4
			c1.2,1.6,1.8,3.6,1.8,5.6V401l55.3-44.2c0.9-0.7,1.8-1.2,2.9-1.6l0.3-0.1c1-0.4,2.1-0.6,3.2-0.6h79.4
			c69.1,0,125.3-56.2,125.3-125.4c0-70.6-57.5-128.1-128.1-128.1H209.9z"/>
	</g>
</svg>
