<?xml version="1.0" encoding="utf-8"?>
<!-- Generator: Adobe Illustrator 18.1.1, SVG Export Plug-In . SVG Version: 6.00 Build 0)  -->
<svg version="1.1" xmlns="http://www.w3.org/2000/svg" xmlns:xlink="http://www.w3.org/1999/xlink" x="0px" y="0px"
	 viewBox="0 0 512 512" enable-background="new 0 0 512 512" xml:space="preserve">
	<path fill="#122377" d="M428,176.6h-0.2c-6.2,0-12.4,1.2-18.1,3.6l-81.3,33.6c-3.4,1.4-7.4,0.5-9.8-2.2l-45.2-49.4
		c-4.2-4.5-10.1-7.2-16.4-7.2c-3.8,0-7.5,1-10.8,2.7L63.7,259.3c-16.6,9.2-26.8,26.7-26.8,45.6c0,28.8,23.4,52.2,52.2,52.2h320.1
		c36.3,0,66-29.6,66-66V224C475.2,197.9,454,176.7,428,176.6z M74.7,279l45.5-25.3l8.8,12.8c2.2,3.2,5.7,4.9,9.3,4.9
		c2.2,0,4.4-0.6,6.3-2c5.1-3.5,6.4-10.6,2.9-15.6l-7.5-11l22.6-12.6l14.9,21.6c2.2,3.2,5.7,4.9,9.3,4.9c2.2,0,4.4-0.6,6.3-2
		c5.2-3.5,6.4-10.6,2.9-15.6l-13.7-19.8l22.4-12.5l20.3,29.6c2.2,3.2,5.7,4.9,9.3,4.9c2.2,0,4.4-0.6,6.3-2c5.2-3.5,6.4-10.6,2.9-15.6
		l-18.9-27.8l32.6-18.2l45,49.2c5.9,6.4,14.4,10.2,23.1,10.2c4.1,0,8.1-0.8,11.9-2.4l81.3-33.6c3.1-1.3,6.2-1.9,9.6-1.9l0,0
		c13.6,0.1,24.7,11.2,24.7,24.8v58c-5.2-9.4-13.1-19.3-25.4-26c-26-14-62.2-9.4-107.8,13.6c-70.8,35.7-140.4,44.8-186.2,46
		c-33.2,1-59-1.9-72.7-4c-0.5-2.1-0.8-4.3-0.8-6.7C59.5,294.2,65.3,284.2,74.7,279z M409.2,334.6H89.1c-9.1,0-17.2-4.2-22.6-10.8
		c12.7,1.6,30.8,3.2,53.4,3.2c4.2,0,8.7-0.1,13.2-0.2c47.1-1.3,118.6-10.6,191.4-47.3c42.1-21.2,74.9-25.9,97.3-13.8
		c20.4,11,26.5,33.3,28,40.8C443.5,322.9,427.7,334.6,409.2,334.6z"/>
</svg>
