<?xml version="1.0" encoding="UTF-8"?>
<!DOCTYPE svg PUBLIC "-//W3C//DTD SVG 1.1//EN" "http://www.w3.org/Graphics/SVG/1.1/DTD/svg11.dtd">
<svg version="1.1" xmlns="http://www.w3.org/2000/svg" xmlns:xlink="http://www.w3.org/1999/xlink" x="0" y="0" width="512" height="512" viewBox="0, 0, 512, 512">
  <g>
    <path d="M318.272,427.267 L318.272,427.267 C306.48,427.267 298.123,418.909 294.803,408.835 L274.654,309.807 C272.936,303.053 269.616,296.413 262.862,294.695 C259.542,292.978 257.825,292.978 254.505,292.978 C252.787,292.978 251.185,292.978 249.467,292.978 C242.713,294.695 237.676,301.335 236.073,309.807 L217.641,408.835 C215.924,420.627 205.849,427.267 194.172,427.267 C189.135,427.267 182.38,425.549 179.06,420.512 C160.629,403.683 148.837,378.497 145.517,344.953 C142.197,318.05 145.517,292.864 147.234,281.186 C147.234,277.866 147.234,272.829 145.517,269.395 L118.613,229.096 C103.502,208.947 96.747,185.478 101.784,160.292 C106.822,123.314 137.045,93.091 174.023,86.451 C179.06,84.733 184.098,84.733 189.135,84.733 C214.321,84.733 239.507,96.525 256.336,114.957 C273.165,94.808 298.352,84.733 323.538,84.733 C328.575,84.733 333.613,84.733 338.65,86.451 C375.628,93.205 405.851,123.429 410.889,160.292 C414.209,185.478 409.171,208.947 394.06,229.096 L368.873,269.395 C365.553,274.432 365.553,279.469 365.553,282.789 C367.271,294.581 370.591,319.767 367.271,346.556 C363.951,380.1 352.159,405.286 333.727,422.115 C329.949,425.549 323.309,427.267 318.272,427.267 z M256.107,274.432 C261.145,274.432 266.182,276.149 271.219,277.752 C283.011,282.789 291.368,292.864 294.688,306.258 L314.837,405.286 C314.837,408.606 318.157,408.606 319.875,408.606 C321.592,408.606 321.592,408.606 323.195,406.889 C360.173,373.345 351.701,304.426 348.381,284.277 C346.664,275.92 348.381,267.448 353.418,260.808 L378.604,220.51 L378.604,220.51 C390.396,205.398 395.433,185.249 391.999,166.818 C386.962,138.311 363.493,114.728 334.872,109.691 C331.552,107.973 326.515,107.973 323.08,107.973 C302.931,107.973 282.782,116.331 269.388,133.16 C266.068,136.48 261.03,139.914 255.993,139.914 C250.956,139.914 245.918,138.197 242.598,133.16 C229.204,116.331 209.055,107.973 188.906,107.973 C185.586,107.973 180.549,107.973 177.114,107.973 C148.608,113.011 125.024,136.48 119.987,165.1 C116.667,185.249 121.704,203.681 133.382,218.793 L133.382,218.793 L160.285,259.091 C165.322,265.846 167.04,274.203 165.322,284.277 C162.002,304.426 155.248,373.231 190.509,406.889 C192.226,406.889 192.226,408.606 193.829,408.606 C195.546,408.606 197.149,408.606 198.866,405.286 L217.298,307.861 C220.618,292.749 230.692,280.957 244.201,277.637 C249.353,276.149 252.787,274.432 256.107,274.432 z" fill="#122377" id="shape"/>
  </g>
</svg>
