<?xml version="1.0" encoding="utf-8"?>
<!-- Generator: Adobe Illustrator 18.1.1, SVG Export Plug-In . SVG Version: 6.00 Build 0)  -->
<svg version="1.1" id="Layer_1" xmlns="http://www.w3.org/2000/svg" xmlns:xlink="http://www.w3.org/1999/xlink" x="0px" y="0px"
	 viewBox="-471 275 17 17" enable-background="new -471 275 17 17" xml:space="preserve">
<g id="_x33_4-Mail_x5F_UI" transform="translate(0.000000, 4.000000)">
	<path id="Fill-1" fill="#196ECF" d="M-462.5,279.5l4.9-3.8l2.8-2.1c-0.1,0-0.2-0.1-0.3-0.1h-14.7c-0.1,0-0.2,0-0.3,0L-462.5,279.5"
		/>
	<polyline id="Fill-2" fill="#196ECF" points="-456.6,277.1 -459.1,278.8 -454,283.8 -454,275.2 -456.6,277.1 	"/>
	<path id="Fill-3" fill="#196ECF" d="M-460.4,279.6l-1.4,1.1c-0.2,0.2-0.4,0.2-0.7,0.2s-0.5-0.1-0.7-0.2l-1.5-1.2l-5.6,5.9
		c0.1,0.1,0.3,0.1,0.4,0.1h14.6c0.1,0,0.2,0,0.3-0.1L-460.4,279.6"/>
	<polyline id="Fill-4" fill="#196ECF" points="-471,275.2 -471,283.8 -465.9,278.8 -471,275.2 	"/>
</g>
</svg>
