<?xml version="1.0" encoding="utf-8"?>
<!-- Generator: Adobe Illustrator 19.0.1, SVG Export Plug-In . SVG Version: 6.00 Build 0)  -->
<svg version="1.1" id="Layer_1" xmlns="http://www.w3.org/2000/svg" xmlns:xlink="http://www.w3.org/1999/xlink" x="0px" y="0px"
	 viewBox="-386 287 27 27" style="enable-background:new -386 287 27 27;" xml:space="preserve">
<style type="text/css">
	.st0{fill:#122377;}
	.st1{fill:none;}
</style>

	<g>
		<path class="st0" d="M-377.4,302.5h-4.5c-0.2,0-0.4-0.2-0.4-0.4v-5.9c0-0.2,0.2-0.4,0.4-0.4h4.5
			c0.2,0,0.4,0.2,0.4,0.4v5.9C-377.1,302.3-377.2,302.5-377.4,302.5z M-381.7,301.8h3.9v-5.3h-3.9V301.8z"/>
	</g>

	<g>
		<path class="st0" d="M-370.2,297.9h-4.6c-0.2,0-0.3-0.1-0.3-0.3c0-0.2,0.1-0.3,0.3-0.3h4.6
			c0.2,0,0.3,0.1,0.3,0.3C-369.8,297.8-370,297.9-370.2,297.9z"/>
	</g>
	<g>
		<path class="st0" d="M-370.2,301.2h-4.6c-0.2,0-0.3-0.1-0.3-0.3c0-0.2,0.1-0.3,0.3-0.3h4.6
			c0.2,0,0.3,0.1,0.3,0.3C-369.8,301-370,301.2-370.2,301.2z"/>
	</g>
	<g>
		<path class="st0" d="M-363,297.9h-4.6c-0.2,0-0.3-0.1-0.3-0.3c0-0.2,0.1-0.3,0.3-0.3h4.6
			c0.2,0,0.3,0.1,0.3,0.3C-362.7,297.8-362.8,297.9-363,297.9z"/>
	</g>
	<g>
		<path class="st0" d="M-363,301.2h-4.6c-0.2,0-0.3-0.1-0.3-0.3c0-0.2,0.1-0.3,0.3-0.3h4.6
			c0.2,0,0.3,0.1,0.3,0.3C-362.7,301-362.8,301.2-363,301.2z"/>
	</g>
	<g>
		<path class="st0" d="M-363,305.1h-19c-0.2,0-0.3-0.1-0.3-0.3c0-0.2,0.1-0.3,0.3-0.3h19
			c0.2,0,0.3,0.1,0.3,0.3C-362.6,305-362.8,305.1-363,305.1z"/>
	</g>

	<g>
		<path class="st0" d="M-361.4,308.4h-22.2c-1.1,0-2-0.9-2-2v-11.8c0-1.1,0.9-2,2-2h22.2c1.1,0,2,0.9,2,2v11.8
			C-359.4,307.5-360.3,308.4-361.4,308.4z M-383.6,294c-0.4,0-0.7,0.3-0.7,0.7v11.8c0,0.4,0.3,0.7,0.7,0.7
			h22.2c0.4,0,0.7-0.3,0.7-0.7v-11.8c0-0.4-0.3-0.7-0.7-0.7L-383.6,294L-383.6,294z"/>
	</g>

	<g>
		<path class="st0" d="M-361.4,308.4h-22.2c-1.1,0-2-0.9-2-2v-11.8c0-1.1,0.9-2,2-2h22.2c1.1,0,2,0.9,2,2v11.8
			C-359.4,307.5-360.3,308.4-361.4,308.4z M-383.6,294c-0.4,0-0.7,0.3-0.7,0.7v11.8c0,0.4,0.3,0.7,0.7,0.7
			h22.2c0.4,0,0.7-0.3,0.7-0.7v-11.8c0-0.4-0.3-0.7-0.7-0.7L-383.6,294L-383.6,294z"/>
	</g>

	<rect x="-388.2" y="284.8" class="st1" width="31.4" height="31.4"/>

</svg>
