<?xml version="1.0" encoding="utf-8"?>
<!-- Generator: Adobe Illustrator 18.1.1, SVG Export Plug-In . SVG Version: 6.00 Build 0)  -->
<svg version="1.1" id="Layer_1" xmlns="http://www.w3.org/2000/svg" xmlns:xlink="http://www.w3.org/1999/xlink" x="0px" y="0px"
	 viewBox="0 0 512 512" enable-background="new 0 0 512 512" xml:space="preserve">
<g>
	<g>
		<defs>
			<rect id="SVGID_1_" width="512" height="512"/>
		</defs>
		<clipPath id="SVGID_2_">
			<use xlink:href="#SVGID_1_"  overflow="visible"/>
		</clipPath>
		<path clip-path="url(#SVGID_2_)" fill="#122377" d="M357.8,190.7h3.6c2.2,0,4-1.8,4-4c0-2.2-1.8-4-4-4h-3.6c-2.2,0-4,1.8-4,4
			C353.7,188.9,355.5,190.7,357.8,190.7"/>
		<path clip-path="url(#SVGID_2_)" fill="#122377" d="M326.4,190.7h3.6c2.2,0,4-1.8,4-4c0-2.2-1.8-4-4-4h-3.6c-2.2,0-4,1.8-4,4
			C322.4,188.9,324.2,190.7,326.4,190.7"/>
		<path clip-path="url(#SVGID_2_)" fill="#122377" d="M469.1,332c-5.8-26.9-21.8-50.6-44.2-67.6v-95c0-16.5-4.4-31.8-12.8-44.3
			c-22.5-33.7-59.9-33.8-87.9-22.5c-22.4-5.9-37.2,2.9-45.7,11.4c-5.1,5.1-9.1,11.8-11.6,19.3c-2,6.1-3.1,12.6-3.5,19.7v109.6
			c0,0.4,0.2,0.6,0.2,1c-3.3,2.4-6.5,4.8-9.5,7.5c0.4-2.2,0.7-4.4,0.7-6.7v-29.5c0-48.4-39.4-87.9-87.9-87.9
			c-48.5,0-87.9,39.4-87.9,87.9v29.5c0,22.6,18.4,40.9,40.9,40.9h11.7c-1.6,3.7-3.6,7.1-5.5,8.3c-2.6-1.8-5.9-2.6-9.1-1.6
			c-34.3,10.6-56.7,30.4-72.7,64.2c-2.5,5.3-0.2,11.7,5.1,14.2c1.5,0.7,3,1,4.6,1c4,0,7.8-2.2,9.6-6.1c13.4-28.3,31.2-44.1,59.7-53
			c0.7-0.2,1.3-0.7,1.9-1c7.5,12.3,21.1,28,41.8,28c19.9,0,33.1-15,40.8-27.4c0.3,0.1,0.5,0.4,0.8,0.5c6.3,1.9,11.8,4.4,17.1,7.1
			c0.4,1.8,1.1,3.6,2.3,5.2c-1.2,4.6-0.2,9.7,2.9,13.6v0c-0.6,4.6,0.8,9.3,4.1,12.9c3,3.1,7.2,4.9,11.5,4.9c1.5,0,3-0.2,4.4-0.6
			c2.3,1.3,5,2,7.7,2c1.8,0,3.5-0.4,5.2-0.9c1.6,2.8,3.1,5.6,4.6,8.7c1.9,3.9,5.7,6.1,9.7,6.1c1.5,0,3.1-0.3,4.5-1
			c5.3-2.5,7.6-8.9,5.1-14.2c-2.4-5.2-5.2-9.9-8-14.5l3.5-4c5.1-5.9,5.3-14.6,0.4-20.5c-1.7-2.1-3.9-3.7-6.3-4.7
			c-0.9-1.5-2-2.8-3.3-4c-1.3-1.1-2.8-2-4.4-2.7c-0.9-1.5-2-2.8-3.3-4c-1.3-1.1-2.8-2.1-4.4-2.7c-1.3-2.2-3.2-4.2-5.5-5.6
			c-2.4-1.4-5.1-2.2-7.9-2.2c-0.3,0-0.6,0.1-0.9,0.1c11.3-18.6,28.8-33.6,49.9-42.7v0c-1.3,3.5-2,7.4-2,12c0,4.4-1.4,11.2-5.2,17.4
			c-1.4,2.2-1.3,5.1,0.2,7.2c1.1,1.4,2.8,2.2,4.5,2.2c0.6,0,1.1-0.1,1.6-0.2c10.7-3.1,22.6-7.3,31.6-15.4l13.4,9.7
			c0.7,0.5,1.6,0.8,2.5,0.8c0.9,0,1.7-0.3,2.5-0.8l13.8-10c9,8.2,21.1,12.5,31.9,15.6c0.5,0.1,1.1,0.2,1.6,0.2
			c1.8,0,3.4-0.8,4.5-2.2c1.5-2,1.6-4.9,0.2-7.2c-3.9-6.2-5.2-13.1-5.3-17.4c0-4.6-0.6-8.5-1.9-12c29.4,13.1,50.8,38.1,57.1,67.5
			c1.1,5,5.5,8.4,10.4,8.4c0.7,0,1.5-0.1,2.2-0.3C466.7,343.4,470.3,337.8,469.1,332 M131.1,258.9l-0.1-30.8
			c16.4-3.7,26.4-13.5,32.1-23.7c10.8,23.8,31.4,33.9,39.6,37.1l0.1,13.7c0,1.5-0.2,3-0.5,4.2c-5.8,21.5-21.1,30.6-29.7,34.1
			c-4.6,1.9-9.8,1.9-14.4,0.1C138.7,285.9,132.6,265.8,131.1,258.9 M167,348.7c-17.6,0-29.1-16-34.7-26.4c5.9-4.1,9.7-12.9,11.5-19
			c0.9-0.6,1.7-1.3,2.3-2.2c2.4,1.5,4.9,2.8,7.8,3.9c3.7,1.5,7.6,2.2,11.6,2.2c4.1,0,8.1-0.8,11.9-2.4c3-1.2,6.6-3.1,10.5-5.6
			c0.5,1,1.1,2,1.9,2.9c1.6,5.9,5.3,15.2,11.3,19.8C195.3,332.9,184,348.7,167,348.7 M223.1,311.6c-0.5,1-0.6,2.1-0.8,3.1
			c-2.5-0.9-4.9-1.9-7.4-2.7c-2.6-0.8-5.3-0.5-7.6,0.6l-1.1-0.4c-1.4-1.6-2.8-4.1-4-6.9h11.7c4.9,0,9.6-1,14-2.6
			C226.2,305.6,224.5,308.6,223.1,311.6 M233.5,264.4c0,10.8-8.8,19.6-19.6,19.6h-9.8c4.2-5.7,7.9-12.7,10.2-21.4
			c0.6-2.3,0.9-4.8,0.9-7.5l-0.1-14.6c0-4.6-2.9-8.7-7.2-10.3c-10-3.6-33.6-15.6-38.5-47.7c-0.5-3.1-3.1-5.3-6.3-5.3
			c-3.1,0.1-5.7,2.6-5.9,5.7c-0.1,1.2-2.6,29.9-33.2,33.8c-3.1,0.4-5.4,3-5.4,6.1l0.1,36.6c0,0.4,0,0.9,0.1,1.3
			c0.9,4.2,3.5,13.7,9.7,23.2h-8.6c-10.8,0-19.6-8.8-19.6-19.6v-29.5c0-36.7,29.9-66.6,66.6-66.6c36.7,0,66.6,29.9,66.6,66.6V264.4z
			 M248.2,322.2c0.9,0,1.7,0.2,2.5,0.7c2.2,1.3,3,3.9,2.2,6.1c-0.1,0.3,0.1,0.5,0.4,0.5c0,0,0.1,0,0.1,0c0.7-0.4,1.6-0.6,2.4-0.6
			c1.2,0,2.3,0.4,3.3,1.2c1.6,1.4,2.1,3.6,1.5,5.6c-0.1,0.2,0.1,0.5,0.4,0.5c0.1,0,0.1,0,0.1,0c0.8-0.4,1.6-0.6,2.4-0.6
			c1.1,0,2.3,0.4,3.3,1.2c1.6,1.4,2.1,3.6,1.5,5.6c-0.1,0.3,0.1,0.5,0.3,0.5c0.1,0,0.1,0,0.2-0.1c0.8-0.4,1.6-0.6,2.4-0.6
			c1.4,0,2.9,0.6,3.9,1.9c1.6,2,1.4,4.9-0.3,6.8L262.7,365c-1.1,1.2-2.6,1.9-4.1,1.9c-0.8,0-1.7-0.2-2.4-0.6c-2-1.2-2.8-3.2-2.5-5.2
			c0-0.3-0.1-0.5-0.4-0.5c-0.1,0-0.2,0-0.3,0.1l-2.6,3c-1,1.2-2.4,1.8-3.9,1.8c-1.4,0-2.7-0.5-3.7-1.6c-1.9-2-1.7-5.1,0-7.1l2.4-2.8
			c0.2-0.3,0-0.6-0.3-0.6c-0.1,0-0.1,0-0.1,0c-0.5,0.2-1.1,0.3-1.6,0.3c-1.4,0-2.9-0.6-4-2c-1.6-1.9-1.3-4.8,0.3-6.7l3.3-3.9
			c0.2-0.3,0-0.6-0.3-0.6c-0.1,0-0.1,0-0.1,0c-0.5,0.2-1.1,0.2-1.6,0.2c-1.4,0-2.9-0.6-4-1.9c-1.6-2-1.3-4.8,0.3-6.7l6.9-8
			C245.1,322.9,246.7,322.2,248.2,322.2 M299.8,297.7c3.5-7.8,3.8-14.6,3.8-16.8c0-3.6,0.4-6.5,1.4-9c1.5-4.1,5.2-6.5,7.8-7.8
			l9,22.3C315.7,291.7,307.7,295.2,299.8,297.7 M358.2,282.9l-14.4,10.4L329.5,283l-12.7-31.4c1.9-2.7,3.4-5.7,4.5-8.9
			c3.3,2.4,7.1,4.5,11.3,6.2c3.6,1.4,7.3,2.1,11.1,2.1c3.9,0,7.8-0.8,11.4-2.3c3.7-1.5,8.3-3.9,13.1-7.4c1,3.4,2.4,6.5,4.3,9.3
			L358.2,282.9z M307.4,203.1l-0.1-27.4c15.5-0.3,53.5-3.4,67.8-25.3l4.2,7.3c1.2,2.1,1.9,4.5,1.9,6.9l-0.1,37.7
			c-5.1,23.1-21,32.7-30,36.4c-4.6,1.9-9.9,1.9-14.5,0.1C313.4,229.8,307.6,203.4,307.4,203.1 M366,286l9.6-21.9
			c2.6,1.3,6.2,3.7,7.7,7.7c0.9,2.5,1.4,5.5,1.4,9.1c0,2.2,0.3,9,3.8,16.8C380.5,295.1,372.2,291.5,366,286 M403.6,251.3
			c-5.7-2.8-11.6-5.3-17.8-7.2c-1.6-0.5-3.2-0.5-4.8-0.3c-1.6-2.8-3-5.8-3.5-9.4c-0.1-0.5-0.3-0.9-0.5-1.3
			c6.1-6.8,11.6-15.9,14.4-28.5c0.1-0.4,0.2-1.7,0.2-2.1l0.1-37.9c0-4.3-1.1-8.5-3.3-12.3l-9.4-16.5c-1.1-1.9-3.2-3-5.4-2.6
			c-2.1,0.3-3.9,1.9-4.4,4.1c-6.2,26.1-54.6,27.7-64.3,27.7c-4.6,0-8.4,3.8-8.4,8.5l0.1,29.6c0,0.4,0.1,1,0.2,1.4
			c0.5,2.3,4.1,17.4,15.5,30.1c-0.6,3.5-1.9,6.5-3.6,9.3c-1.8-0.4-3.7-0.6-5.7,0c-6.4,2-12.4,4.5-18.3,7.3l0-97.8
			c0.2-4.7,1.1-9.3,2.5-13.6c1.4-4.3,3.6-8,6.4-10.8c6.9-6.9,15.3-8.7,26.2-5.6c3.8,1.1,7.7,0.8,11.3-0.7
			c9.9-4.1,43.6-15.4,63.3,14.1c6,9,9.2,20.2,9.2,32.5V251.3z"/>
		<path clip-path="url(#SVGID_2_)" fill="#122377" d="M152,247.7c2.1,0,3.9-1.7,3.9-3.9c0-2.1-1.7-3.9-3.9-3.9h-3.6
			c-2.1,0-3.9,1.7-3.9,3.9c0,2.1,1.7,3.9,3.9,3.9H152z"/>
		<path clip-path="url(#SVGID_2_)" fill="#122377" d="M179.9,247.7h3.6c2.1,0,3.9-1.7,3.9-3.9c0-2.1-1.8-3.9-3.9-3.9h-3.6
			c-2.1,0-3.9,1.7-3.9,3.9C176.1,246,177.8,247.7,179.9,247.7"/>
	</g>
</g>
</svg>
