<?xml version="1.0" encoding="utf-8"?>
<!-- Generator: Adobe Illustrator 18.1.1, SVG Export Plug-In . SVG Version: 6.00 Build 0)  -->
<svg version="1.1" id="Layer_1" xmlns="http://www.w3.org/2000/svg" xmlns:xlink="http://www.w3.org/1999/xlink" x="0px" y="0px"
	 viewBox="0 0 512 512" enable-background="new 0 0 512 512" xml:space="preserve">
<g>
	<g>
		<defs>
			<rect id="SVGID_1_" width="512" height="512"/>
		</defs>
		<clipPath id="SVGID_2_">
			<use xlink:href="#SVGID_1_"  overflow="visible"/>
		</clipPath>
		<path clip-path="url(#SVGID_2_)" fill="#122377" d="M394.3,118.1h-53.2V95.5c0-5.9-4.8-10.7-10.7-10.7h-31.8c0,0,0-0.1,0-0.1
			c0-23.2-18.9-42.1-42.1-42.1c-23.2,0-42.1,18.9-42.1,42.1c0,0,0,0.1,0,0.1h-33.2c-5.9,0-10.7,4.8-10.7,10.7v22.6h-53.1
			c-5.9,0-10.7,4.8-10.7,10.7v330c0,5.9,4.8,10.7,10.7,10.7h276.7c5.9,0,10.7-4.8,10.7-10.7v-330C405,122.8,400.2,118.1,394.3,118.1
			 M235.9,84.7c0-11.5,9.3-20.8,20.8-20.8c11.5,0,20.8,9.3,20.8,20.8c0,0,0,0.1,0,0.1h-41.6C235.8,84.8,235.9,84.7,235.9,84.7
			 M192,106.1h127.8v32.7H192V106.1z M383.7,448.1H128.3V139.4h42.4v10.1c0,5.9,4.8,10.7,10.7,10.7h149.1c5.9,0,10.7-4.8,10.7-10.7
			v-10.1h42.5V448.1z"/>
		<path clip-path="url(#SVGID_2_)" fill="#122377" d="M290.8,266c0,13,8.3,24,19.9,28.2v41.4c0,22.7-18.5,41.2-41.2,41.2
			c-22.7,0-41.2-18.5-41.2-41.2v-9.2c25.7-5.2,45.1-27.9,45.1-55.1v-42.8c0-5.9-4.8-10.7-10.7-10.7h-22.8c-5.9,0-10.7,4.8-10.7,10.7
			c0,5.9,4.8,10.7,10.7,10.7H252v32.1c0,19.3-15.6,34.9-34.9,34.9c-19.3,0-34.9-15.7-34.9-34.9v-32.1h10.7c5.9,0,10.7-4.8,10.7-10.7
			c0-5.9-4.8-10.7-10.7-10.7h-21.4c-5.9,0-10.7,4.8-10.7,10.7v42.8c0,27.5,19.9,50.4,46.1,55.2v9.1c0,34.5,28,62.5,62.5,62.5
			c34.5,0,62.5-28.1,62.5-62.5V294c11.1-4.4,19.1-15.3,19.1-28c0-16.6-13.5-30.1-30.1-30.1C304.3,235.9,290.8,249.4,290.8,266
			 M329.7,266c0,4.9-4,8.8-8.8,8.8c-4.8,0-8.8-3.9-8.8-8.8c0-4.9,3.9-8.8,8.8-8.8C325.8,257.2,329.7,261.1,329.7,266"/>
	</g>
</g>
</svg>
