<?xml version="1.0" encoding="utf-8"?>
<!-- Generator: Adobe Illustrator 18.1.1, SVG Export Plug-In . SVG Version: 6.00 Build 0)  -->
<svg version="1.1" xmlns="http://www.w3.org/2000/svg" xmlns:xlink="http://www.w3.org/1999/xlink" x="0px" y="0px"
	 viewBox="0 0 512 512" enable-background="new 0 0 512 512" xml:space="preserve">
	 <path fill="#196ECF" d="M397.337,105.027 C399.791,105.269 401.829,106.368 403.63,107.996 C407.651,112.016 407.651,118.535
		 403.63,122.555 L270.209,255.976 L403.63,389.397 C407.651,393.418 407.651,399.937 403.63,403.957 C399.61,407.978 393.091,407.978
		 389.071,403.957 L256,270.886 L122.929,403.957 C118.909,407.978 112.39,407.978 108.37,403.957 C104.349,399.937 104.349,393.418
		 108.37,389.397 L241.791,255.976 L108.37,122.555 C104.349,118.535 104.349,112.016 108.37,107.996 C110.171,106.368 112.209,105.269
		 114.663,105.027 C118.196,105.027 120.259,105.501 122.929,107.996 L256,241.067 L389.071,107.996 C391.741,105.501 393.804,105.027
		 397.337,105.027 z" />
</svg>
