<?xml version="1.0" encoding="utf-8"?>
<!-- Generator: Adobe Illustrator 18.1.1, SVG Export Plug-In . SVG Version: 6.00 Build 0)  -->
<svg version="1.1" id="Layer_1" xmlns="http://www.w3.org/2000/svg" xmlns:xlink="http://www.w3.org/1999/xlink" x="0px" y="0px"
	 viewBox="0 0 512 512" enable-background="new 0 0 512 512" xml:space="preserve">
<g>
	<g>
		<path fill="#122377" d="M468.1,400.9l-41.7-85.6c-0.1-0.2-0.3-0.4-0.5-0.6V107c0-6.2-5-11.2-11.2-11.2H96c-6.2,0-11.2,5-11.2,11.2
			v207.6c-0.2,0.3-0.5,0.5-0.6,0.8L43.8,401c-1.6,3.3-1.3,7.2,0.6,10.3c2,3.1,5.4,4.9,9,4.9h405.1c3.7,0,7.1-1.9,9.1-5
			C469.6,408.1,469.8,404.1,468.1,400.9z M404.6,117.1v192.1H106.1V117.1H404.6z M70.3,394.9l30.3-64.2h309.6l31.3,64.2H70.3z"/>
		<path fill="#122377" d="M338.8,352.2H175.5c-5.9,0-10.7,4.8-10.7,10.7c0,5.9,4.8,10.7,10.7,10.7h163.3c5.9,0,10.7-4.8,10.7-10.7
			C349.4,357,344.7,352.2,338.8,352.2z"/>
	</g>
	<rect fill="none" width="512" height="512"/>
</g>
</svg>
