<?xml version="1.0" encoding="utf-8"?>
<!-- Generator: Adobe Illustrator 18.1.1, SVG Export Plug-In . SVG Version: 6.00 Build 0)  -->
<svg version="1.1" xmlns="http://www.w3.org/2000/svg" xmlns:xlink="http://www.w3.org/1999/xlink" x="0px" y="0px"
	 viewBox="0 0 512 512" enable-background="new 0 0 512 512" xml:space="preserve">
	<g>
		<path fill="#196ECF" d="M396.7,256c-9.7,0-17.6,7.9-17.6,17.6v123.1H132.9V273.6c0-9.7-7.9-17.6-17.6-17.6s-17.6,7.9-17.6,17.6
			v140.7c0,9.7,7.9,17.6,17.6,17.6h281.4c9.7,0,17.6-7.9,17.6-17.6V273.6C414.3,263.9,406.4,256,396.7,256z"/>
		<path fill="#196ECF" d="M244.5,352.7c3.3,3.3,7.8,5.2,12.4,5.2c4.7,0,9.1-1.9,12.4-5.2l60.1-60.1c6.9-6.9,6.9-18,0-24.9
			c-6.9-6.9-18-6.9-24.9,0l-31,31v-201c0-9.7-7.9-17.6-17.6-17.6c-9.7,0-17.6,7.9-17.6,17.6v199.2l-29.2-29.2c-6.9-6.9-18-6.9-24.9,0
			s-6.9,18,0,24.9L244.5,352.7z"/>
	</g>
</svg>
