<?xml version="1.0" encoding="UTF-8"?>
<!DOCTYPE svg PUBLIC "-//W3C//DTD SVG 1.1//EN" "http://www.w3.org/Graphics/SVG/1.1/DTD/svg11.dtd">
<svg version="1.1" xmlns="http://www.w3.org/2000/svg" xmlns:xlink="http://www.w3.org/1999/xlink" x="0" y="0" width="512" height="512" viewBox="0, 0, 512, 512">
  <path d="M404.469,253.236 L268.462,253.236 L291.13,230.568 C319.465,202.234 319.465,156.898 291.13,128.564 L287.352,124.786 C259.018,96.451 213.682,96.451 185.348,124.786 L68.231,241.902 C55.009,255.125 47.453,274.015 47.453,292.904 C47.453,311.794 55.009,330.684 68.231,343.907 L72.009,347.685 C85.232,360.907 104.122,368.463 123.012,368.463 C138.123,368.463 155.124,362.796 166.458,353.352 C175.903,381.686 202.348,402.465 232.572,402.465 L400.691,402.465 C438.47,402.465 470.583,370.352 470.583,332.573 L470.583,323.128 C472.472,285.349 442.248,253.236 404.469,253.236 z M200.459,139.898 C219.349,121.008 251.462,121.008 272.24,139.898 L276.018,143.676 C294.908,162.565 294.908,194.678 276.018,215.457 L238.239,253.236 L238.239,253.236 L234.461,253.236 C226.905,253.236 219.349,255.125 211.793,257.014 L147.568,192.789 L200.459,139.898 z M89.01,332.573 L85.232,328.795 C75.787,319.35 70.12,306.127 70.12,292.904 C70.12,279.682 75.787,266.459 85.232,257.014 L134.345,207.901 L194.793,268.348 C175.903,281.571 164.569,300.46 164.569,323.128 L164.569,326.906 L158.902,332.573 C140.012,351.463 107.9,351.463 89.01,332.573 z M234.461,381.686 C208.015,381.686 185.348,360.907 185.348,332.573 L185.348,330.684 L185.348,328.795 L185.348,323.128 C185.348,296.682 206.126,274.015 234.461,274.015 L306.242,274.015 L306.242,379.797 L234.461,379.797 L234.461,381.686 z M451.693,332.573 C451.693,359.018 430.914,381.686 402.58,381.686 L327.021,381.686 L327.021,275.904 L404.469,275.904 C430.914,275.904 453.582,296.682 453.582,325.017 L453.582,332.573 L451.693,332.573 z" fill="#122377" />
</svg>
