<?xml version="1.0" encoding="utf-8"?>
<!-- Generator: Adobe Illustrator 18.1.1, SVG Export Plug-In . SVG Version: 6.00 Build 0)  -->
<svg version="1.1" xmlns="http://www.w3.org/2000/svg" xmlns:xlink="http://www.w3.org/1999/xlink" x="0px" y="0px"
	 viewBox="0 0 512 512" enable-background="new 0 0 512 512" xml:space="preserve">
 	<g>
		<path fill="#196ECF" d="M393,231.5c-10,0-18,8.1-18,18.2V396H120V123h127.2c10,0,18.2-8,18.2-18s-8.1-18-18.2-18H101.7
			c-10,0-17.7,7.2-17.7,17.2v309.1c0,10,7.7,17.7,17.7,17.7h290.9c10,0,18.4-7.7,18.4-17.7V249.7C411,239.6,403,231.5,393,231.5z"/>
		<path fill="#196ECF" d="M410.8,68h-90.9c-10,0-18.2,8.5-18.2,18.5s8.1,18.5,18.2,18.5h47.4L220,251.9c-7.1,7.1-7.1,18.4,0,25.5
			c3.6,3.6,8.2,5.2,12.9,5.2c4.7,0,9.5-1.8,13-5.4l147.1-147v46.6c0,10,7.5,18.2,17.5,18.2S428,187,428,176.9V86
			C428,76,420.8,68,410.8,68z"/>
	</g>
</svg>
