<?xml version="1.0" encoding="utf-8"?>
<!-- Generator: Adobe Illustrator 19.0.1, SVG Export Plug-In . SVG Version: 6.00 Build 0)  -->
<svg version="1.1" xmlns="http://www.w3.org/2000/svg" xmlns:xlink="http://www.w3.org/1999/xlink" x="0px" y="0px"
	 viewBox="-24.9 232.8 214.2 331.5" style="enable-background:new -24.9 232.8 214.2 331.5;" xml:space="preserve">
	<path fill="#5C1D6B" d="M189.3,316.3c0-16.1-13.2-29.3-29.3-29.3c-4.4,0-8.8,1.5-13.2,2.9v-20.5c0-16.1-13.2-29.3-29.3-29.3
		c-5.9,0-11.7,1.5-16.1,5.9c-4.4-7.3-13.2-13.2-23.5-13.2h-1.5c-16.1,0-29.3,13.2-29.3,29.3v4.4l0,0c-13.2-5.9-24.9-2.9-33.7,2.9
		c-5.9,5.9-10.3,14.7-10.3,23.5v74.8h-19.2l0,0c-1.5,0-4.4,1.5-5.9,2.9s-2.9,2.9-2.9,5.9v80.7c0,58.7,48.4,107.1,107.1,107.1
		s107.1-48.4,107.1-107.1V316.3z M82.2,546.6c-49.9,0-89.5-41.1-89.5-89.5v-73.3H3c7.3,0,13.2,5.9,13.2,13.2v46.9l0,0
		c0,8.8,2.9,17.6,8.8,24.9l0,0l52.8,54.3c1.5,1.5,4.4,2.9,5.9,2.9c2.9,0,4.4-1.5,5.9-2.9l52.8-54.3l0,0c8.8-10.3,11.7-24.9,5.9-38.1
		c-5.9-13.2-16.1-20.5-29.3-22c-1.5,0-2.9,0-4.4,0c-13.2,0-23.5,5.9-32.3,14.7c-7.3-8.8-19.1-14.7-32.3-14.7c-1.5,0-2.9,0-4.4,0
		c-5.9,0-11.7,2.9-16.1,5.9v-16.1c0-10.3-5.9-19.1-13.2-24.9v-80.7c0-4.4,1.5-7.3,4.4-8.8c4.4-2.9,8.8-4.4,13.2-1.5
		c4.4,1.5,7.3,5.9,7.3,11.7v79.2c0,4.4,4.4,8.8,8.8,8.8s8.8-4.4,8.8-8.8v-80.7c0,0,0,0,0-1.5l0,0V262c0-7.3,5.9-13.2,13.2-13.2h1.5
		c7.3,0,13.2,5.9,13.2,13.2v4.4l0,0V372c0,4.4,4.4,8.8,8.8,8.8c4.4,0,8.8-4.4,8.8-8.8V270.9l0,0v-4.4V265c1.5-4.4,7.3-7.3,11.7-7.3
		c7.3,0,13.2,5.9,13.2,13.2v101.2c0,4.4,4.4,8.8,8.8,8.8c4.4,0,8.8-4.4,8.8-8.8v-55.7c0-7.3,5.9-13.2,13.2-13.2s13.2,5.9,13.2,13.2
		v139.3C173.1,505.5,132.1,546.6,82.2,546.6z M35.3,435.1c2.9-7.3,8.8-11.7,16.1-11.7c1.5,0,1.5,0,2.9,0c10.3,0,19.1,5.9,22,14.7
		c1.5,2.9,4.4,4.4,7.3,4.4h2.9c2.9,0,5.9-1.5,7.3-4.4c4.4-8.8,13.2-14.7,22-14.7c1.5,0,1.5,0,2.9,0c7.3,0,13.2,4.4,16.1,11.7
		c2.9,7.3,1.5,16.1-2.9,22L85,505.5l-46.9-48.4C32.3,449.8,32.3,442.5,35.3,435.1z" />
</svg>
