<?xml version="1.0" encoding="utf-8"?>
<!-- Generator: Adobe Illustrator 18.1.1, SVG Export Plug-In . SVG Version: 6.00 Build 0)  -->
<svg version="1.1" xmlns="http://www.w3.org/2000/svg" xmlns:xlink="http://www.w3.org/1999/xlink" x="0px" y="0px"
	 viewBox="0 0 27 27" enable-background="new 0 0 27 27" xml:space="preserve">
<path fill="#122377" d="M20.2,8c0-1.1-0.9-2-2-2c-0.3,0-0.6,0.1-0.9,0.2V4.8c0-1.1-0.9-2-2-2c-0.4,0-0.8,0.1-1.1,0.4
	c-0.3-0.5-0.9-0.9-1.6-0.9c0,0-0.1,0-0.1,0c-1.1,0-2,0.9-2,2v0.3c0,0,0,0,0,0C9.6,4.2,8.8,4.4,8.2,4.8C7.8,5.2,7.5,5.8,7.5,6.4v5.1
	l-1.3,0h0c-0.1,0-0.3,0.1-0.4,0.2c-0.1,0.1-0.2,0.2-0.2,0.4v5.5c0,4,3.3,7.3,7.3,7.3c4,0,7.3-3.3,7.3-7.3L20.2,8z M12.9,23.7
	c-3.4,0-6.1-2.8-6.1-6.1v-5l0.7,0c0.5,0,0.9,0.4,0.9,0.9v3.2c0,0,0,0,0,0c0,0.6,0.2,1.2,0.6,1.7c0,0,0,0,0,0l3.6,3.7
	c0.1,0.1,0.3,0.2,0.4,0.2c0.2,0,0.3-0.1,0.4-0.2l3.6-3.7c0,0,0,0,0,0c0.6-0.7,0.8-1.7,0.4-2.6c-0.4-0.9-1.1-1.4-2-1.5
	c-0.1,0-0.2,0-0.3,0c-0.9,0-1.6,0.4-2.2,1c-0.5-0.6-1.3-1-2.2-1c-0.1,0-0.2,0-0.3,0c-0.4,0-0.8,0.2-1.1,0.4v-1.1
	c0-0.7-0.4-1.3-0.9-1.7V6.4c0-0.3,0.1-0.5,0.3-0.6c0.3-0.2,0.6-0.3,0.9-0.1c0.3,0.1,0.5,0.4,0.5,0.8v5.4c0,0.3,0.3,0.6,0.6,0.6
	c0.3,0,0.6-0.3,0.6-0.6V6.4c0,0,0,0,0-0.1c0,0,0,0,0,0v-2c0-0.5,0.4-0.9,0.9-0.9c0,0,0.1,0,0.1,0c0.5,0,0.9,0.4,0.9,0.9v0.3
	c0,0,0,0,0,0v7.2c0,0.3,0.3,0.6,0.6,0.6c0.3,0,0.6-0.3,0.6-0.6V4.9c0,0,0,0,0,0V4.6l0-0.1c0.1-0.3,0.5-0.5,0.8-0.5
	c0.5,0,0.9,0.4,0.9,0.9v6.9c0,0.3,0.3,0.6,0.6,0.6c0.3,0,0.6-0.3,0.6-0.6V8c0-0.5,0.4-0.9,0.9-0.9c0.5,0,0.9,0.4,0.9,0.9l0,9.5
	C19.1,20.9,16.3,23.7,12.9,23.7z M9.7,16.1c0.2-0.5,0.6-0.8,1.1-0.8c0.1,0,0.1,0,0.2,0c0.7,0,1.3,0.4,1.5,1c0.1,0.2,0.3,0.3,0.5,0.3
	h0.2c0.2,0,0.4-0.1,0.5-0.3c0.3-0.6,0.9-1,1.5-1c0.1,0,0.1,0,0.2,0c0.5,0,0.9,0.3,1.1,0.8c0.2,0.5,0.1,1.1-0.2,1.5l-3.2,3.3
	l-3.2-3.3C9.5,17.1,9.5,16.6,9.7,16.1z"/>
</svg>
