<?xml version="1.0" encoding="utf-8"?>
<!-- Generator: Adobe Illustrator 18.1.1, SVG Export Plug-In . SVG Version: 6.00 Build 0)  -->
<svg version="1.1" xmlns="http://www.w3.org/2000/svg" xmlns:xlink="http://www.w3.org/1999/xlink" x="0px" y="0px"
	 viewBox="0 0 27 27" xml:space="preserve" preserveAspectRatio="xMaxYMax">
<g>
	<path fill="#122377" d="M16.4,18.5c-0.1,0.3,0,0.6,0.3,0.7c0.1,0,0.1,0,0.2,0c0.2,0,0.4-0.1,0.5-0.3l3.3-7.6
		c0.3-0.6,0.4-1.3,0.4-1.9c0-2.5-2.1-4.6-4.6-4.6c-2.5,0-4.6,2.1-4.6,4.6c0,0.3,0.3,0.6,0.6,0.6c2,0,3.6,1.6,3.6,3.6
		s-1.6,3.6-3.6,3.6c-0.3,0-0.6,0.3-0.6,0.6s0.3,0.6,0.6,0.6c2.6,0,4.7-2.1,4.7-4.7c0-2.4-1.8-4.4-4.1-4.6c0.3-1.7,1.7-3,3.4-3
		c1.9,0,3.5,1.6,3.5,3.5c0,0.5-0.1,1-0.3,1.5L16.4,18.5z"/>
	<path fill="#122377" d="M16.7,2.4c-3.8,0-6.9,3.1-6.9,6.9c0,0.3,0.3,0.6,0.6,0.6s0.6-0.3,0.6-0.6c0-3.2,2.6-5.8,5.8-5.8
		s5.8,2.6,5.8,5.8c0,0.8-0.2,1.3-0.3,1.8c0,0.1-0.1,0.2-0.1,0.3l-4.7,10.3c-0.6,1.1-1.7,1.8-3,1.8c-1.9,0-3.4-1.5-3.4-3.4
		c0-0.3-0.3-0.6-0.6-0.6s-0.6,0.3-0.6,0.6c0,2.5,2,4.5,4.5,4.5c1.7,0,3.2-0.9,4-2.5l4.7-10.4c0,0,0,0,0-0.1l0.1-0.3
		c0.2-0.5,0.4-1.2,0.4-2.2C23.7,5.5,20.6,2.4,16.7,2.4z"/>
	<path fill="#122377" d="M10.2,13.4c0,1.3,1.1,2.4,2.4,2.4s2.4-1.1,2.4-2.4S13.9,11,12.6,11S10.2,12.1,10.2,13.4z M12.6,12.1
		c0.7,0,1.3,0.6,1.3,1.3c0,0.7-0.6,1.3-1.3,1.3c-0.7,0-1.3-0.6-1.3-1.3C11.3,12.7,11.9,12.1,12.6,12.1z"/>
	<path fill="#122377" d="M9.6,10.6c-0.2-0.2-0.6-0.1-0.8,0.1c-0.6,0.8-0.9,1.7-0.9,2.7c0,1,0.3,1.9,0.9,2.7c0.1,0.1,0.3,0.2,0.5,0.2
		c0.1,0,0.2,0,0.3-0.1c0.2-0.2,0.3-0.5,0.1-0.8c-0.4-0.6-0.7-1.3-0.7-2c0-0.8,0.2-1.5,0.7-2.1C9.9,11.1,9.9,10.8,9.6,10.6z"/>
	<path fill="#122377" d="M6.7,13.4c0-1.3,0.5-2.6,1.3-3.7C8.3,9.5,8.2,9.2,8,9C7.8,8.8,7.4,8.8,7.2,9c-1,1.2-1.6,2.8-1.6,4.4
		c0,1.6,0.6,3.2,1.6,4.4C7.3,17.9,7.5,18,7.6,18c0.1,0,0.3,0,0.4-0.1c0.2-0.2,0.3-0.6,0.1-0.8C7.2,16.1,6.7,14.8,6.7,13.4z"/>
	<path fill="#122377" d="M4.4,13.4c0-2,0.7-3.9,2.1-5.4c0.2-0.2,0.2-0.6,0-0.8c-0.2-0.2-0.6-0.2-0.8,0C4.1,9,3.3,11.2,3.3,13.4
		c0,2.2,0.8,4.4,2.3,6.1c0.1,0.1,0.3,0.2,0.4,0.2c0.1,0,0.3,0,0.4-0.1c0.2-0.2,0.3-0.6,0-0.8C5.2,17.3,4.4,15.4,4.4,13.4z"/>
</g>
</svg>
