<?xml version="1.0" encoding="utf-8"?>
<!-- Generator: Adobe Illustrator 18.1.1, SVG Export Plug-In . SVG Version: 6.00 Build 0)  -->
<svg version="1.1" xmlns="http://www.w3.org/2000/svg" xmlns:xlink="http://www.w3.org/1999/xlink" x="0px" y="0px"
	 viewBox="0 0 512 512" enable-background="new 0 0 512 512" xml:space="preserve">
	<g>
		<path fill="#E91B18" d="M270.2,372c0,8.4-6.7,15.3-14.8,15.3c-7.5,0-14.2-7-14.2-15.3
			c0-8.3,6.7-15.3,14.5-15.3C263.8,356.7,270.2,363.7,270.2,372z M267.6,252.1l-6.2,79.6h-11.5l-5.9-79.6V197
			h23.6V252.1z"/>
		<path fill="#E91B18" d="M438.1,428.7L438.1,428.7H73.9c-3.4,0-6.5-1.8-8.3-4.7c-1.7-2.9-1.8-6.6-0.1-9.5
			L247.6,88.2c1.7-3,4.9-4.9,8.4-4.9c3.5,0,6.7,1.9,8.4,4.9l181.9,325.7c0.9,1.5,1.5,3.3,1.5,5.2
			C447.7,424.4,443.4,428.7,438.1,428.7z M90.2,409.5h331.6L256,112.6L90.2,409.5z"/>
	</g>
</svg>
