<?xml version="1.0" encoding="utf-8"?>
<!-- Generator: Adobe Illustrator 18.1.1, SVG Export Plug-In . SVG Version: 6.00 Build 0)  -->
<svg version="1.1" id="Layer_1" xmlns="http://www.w3.org/2000/svg" xmlns:xlink="http://www.w3.org/1999/xlink" x="0px" y="0px"
	 viewBox="0 0 512 512" enable-background="new 0 0 512 512" xml:space="preserve">
<g>
	<path fill="#122377" d="M255.5,467.4c-116.9,0-211.9-95.1-211.9-211.9S138.6,43.6,255.5,43.6s211.9,95.1,211.9,211.9
		S372.4,467.4,255.5,467.4z M255.5,64.7c-105.2,0-190.8,85.6-190.8,190.8s85.6,190.8,190.8,190.8s190.8-85.6,190.8-190.8
		S360.7,64.7,255.5,64.7z"/>
	<path fill="#122377" d="M271.4,169.9c0,9.2-7.4,16.8-16.2,16.8c-8.3,0-15.7-7.7-15.7-16.8c0-9.2,7.4-16.8,15.9-16.8
		C264.4,153,271.4,160.7,271.4,169.9z M267,361.7h-23.3V219.1H267V361.7z"/>
</g>
</svg>
