<?xml version="1.0" encoding="utf-8"?>
<!-- Generator: Adobe Illustrator 18.1.1, SVG Export Plug-In . SVG Version: 6.00 Build 0)  -->
<svg version="1.1" xmlns="http://www.w3.org/2000/svg" xmlns:xlink="http://www.w3.org/1999/xlink" x="0px" y="0px"
	 viewBox="0 0 512 512" enable-background="new 0 0 512 512" xml:space="preserve">
	<g>
		<path fill="#D53704" d="M256,402.6c-80.8,0-146.6-65.8-146.6-146.6c0-80.8,65.8-146.6,146.6-146.6c80.8,0,146.6,65.8,146.6,146.6
			C402.6,336.8,336.8,402.6,256,402.6z"/>
		<path fill="#FFFFFF" d="M256,110.4c80.3,0,145.6,65.3,145.6,145.6S336.3,401.6,256,401.6S110.4,336.3,110.4,256
			S175.7,110.4,256,110.4 M256,108.4c-81.4,0-147.6,66.2-147.6,147.6S174.6,403.6,256,403.6S403.6,337.4,403.6,256
			S337.4,108.4,256,108.4L256,108.4z"/>
		<path fill="#FFFFFF" d="M351.3,228.8c-1.3-4.1-4.8-7.1-9.1-7.7l-52.6-7.6l-23.5-47.7c-3.8-7.7-16.4-7.7-20.2,0l-23.5,47.7l-52.6,7.6
			c-4.3,0.6-7.8,3.5-9.1,7.7c-1.3,4.1-0.2,8.5,2.9,11.5l38.1,37.1l-9,52.4c-0.6,3.3,0.4,6.6,2.5,9.1c3.3,3.9,9.4,5,13.8,2.7l47-24.6
			l47,24.7c1.6,0.9,3.5,1.3,5.3,1.3c3.3,0,6.4-1.4,8.6-4c2.1-2.6,3-5.9,2.5-9.1l-9-52.4l38.1-37.1
			C351.6,237.3,352.7,232.9,351.3,228.8z M217.7,312.5l6.8-39.4c0.4-2.1-0.3-4.2-1.8-5.7L194,239.6l39.5-5.7c2.1-0.3,3.9-1.6,4.8-3.5
			l17.7-35.8l17.7,35.8c0.9,1.9,2.7,3.2,4.8,3.5l39.5,5.7l-28.6,27.9c-1.5,1.5-2.2,3.6-1.9,5.7l6.8,39.4L261,295
			c-1.6-0.8-3.3-1.2-5-1.2c-1.7,0-3.4,0.4-5.1,1.2L217.7,312.5z"/>
	</g>
</svg>
