<?xml version="1.0" encoding="utf-8"?>
<!-- Generator: Adobe Illustrator 18.1.1, SVG Export Plug-In . SVG Version: 6.00 Build 0)  -->
<svg version="1.1" xmlns="http://www.w3.org/2000/svg" xmlns:xlink="http://www.w3.org/1999/xlink" x="0px" y="0px"
	 viewBox="0 0 512 512" enable-background="new 0 0 512 512" xml:space="preserve">
	<g>
		<path fill="#007000" d="M251.3,264.7c-0.5-0.2-0.6-0.2-0.9-0.3c-0.2,0-0.8-0.2-2-0.6
			c-0.5-0.1-1.4-0.3-2.4-0.6c-19.3-4.8-27.4-13.3-27.4-28.3c0-9.6,3.5-17.2,10.6-22.8
			c5.9-4.7,11.3-6.5,22.2-7.8v-10.8h8.3v10.8c19.4,2,30.7,12.8,31.8,30h-20c-0.2-7.4-5.6-13.7-11.8-13.6v25
			c13.4,3.3,19.3,5.7,25,10.2c6.6,5.1,10.3,13,10.3,22.5c0,7.7-2.7,14.4-8,19.9c-6.8,7.1-14,10.1-27.3,11.5
			v11.9h-8.3v-11.9c-21.4-1.6-33-13.4-35.1-35.1h20v0.5c0,9.5,5.6,16.3,15.1,18.2V264.7z M251.3,220.7
			c-7.8,0.3-12.7,4.8-12.7,11.7c0,6.2,2.9,8.7,12.7,11.3V220.7z M259.6,293.3c10.1-1.6,15.2-6.3,15.2-13.9
			c0-6.3-3.5-9.2-15.2-12.5V293.3z"/>
		<path fill="#007000" d="M154,364.4c-23.9,0-45.8-2.5-66.9-7.7c-3.9-1-6.7-4.5-6.7-8.5V170.4
			c0-4.8,4-8.8,8.8-8.8c0.7,0,1.4,0.1,2.1,0.3c19.7,4.8,40.2,7.2,62.7,7.2c33.7,0,67.7-5.4,100.6-10.6
			c33.5-5.3,68.2-10.8,103.3-10.8c23.9,0,45.8,2.5,66.9,7.7c3.9,1,6.7,4.5,6.7,8.5v177.8c0,2.7-1.2,5.2-3.4,6.9
			c-2.1,1.7-4.9,2.3-7.5,1.6c-19.7-4.8-40.2-7.2-62.7-7.2c-33.7,0-67.7,5.4-100.6,10.6
			C223.8,358.9,189.2,364.4,154,364.4L154,364.4z M98,341.2c17.7,3.8,36.1,5.6,56,5.6h0
			c33.7,0,67.7-5.4,100.6-10.6c33.6-5.3,68.2-10.8,103.3-10.8c19.8,0,38.3,1.7,56,5.3V170.8
			c-17.7-3.8-36.1-5.6-56-5.6c-33.7,0-67.7,5.4-100.6,10.6c-33.5,5.3-68.2,10.8-103.3,10.8
			c-19.8,0-38.3-1.7-56-5.3V341.2z"/>
	</g>
</svg>
