<?xml version="1.0" encoding="utf-8"?>
<!-- Generator: Adobe Illustrator 18.1.1, SVG Export Plug-In . SVG Version: 6.00 Build 0)  -->
<svg version="1.1" id="Artwork" xmlns="http://www.w3.org/2000/svg" xmlns:xlink="http://www.w3.org/1999/xlink" x="0px" y="0px"
	 viewBox="0 0 512 512" enable-background="new 0 0 512 512" xml:space="preserve">
	<g>
		<path fill="#196ECF" d="M445.4,54.9c-3.5-7.4-11-12.2-19.3-12.2H117.9c-7.3,0-14.1,3.8-18,9.9c-3.9,6.2-4.4,13.9-1.2,20.6
			c30.4,64,11,118.2-9.5,175.7C67.7,309,43.4,377.2,81.3,457.1c3.5,7.4,11,12.2,19.3,12.2h308.2c0.2,0,0.3,0,0.4,0
			c11.8,0,21.3-9.5,21.3-21.3c0-4.7-1.5-9-4-12.5c-28.2-62.5-9.1-115.9,11-172.4C459,203,483.3,134.8,445.4,54.9z M397.4,248.8
			c-18.7,52.4-39.5,110.8-19.6,177.8H114.6c-22.7-58.8-4.5-109.8,14.7-163.5c18.7-52.4,39.5-110.8,19.6-177.8H412
			C434.7,144.1,416.5,195.1,397.4,248.8z"/>
		<path fill="#196ECF" d="M369.3,127.7H209.5c-5.9,0-10.7,4.8-10.7,10.7s4.8,10.7,10.7,10.7h159.8c5.9,0,10.7-4.8,10.7-10.7
			S375.2,127.7,369.3,127.7z"/>
		<path fill="#196ECF" d="M357.7,206.6h-113c-5.9,0-10.7,4.8-10.7,10.7s4.8,10.7,10.7,10.7h113c5.9,0,10.7-4.8,10.7-10.7
			S363.6,206.6,357.7,206.6z"/>
		<path fill="#196ECF" d="M336.4,283H223.4c-5.9,0-10.7,4.8-10.7,10.7c0,5.9,4.8,10.7,10.7,10.7h112.9c5.9,0,10.7-4.8,10.7-10.7
			C347,287.8,342.3,283,336.4,283z"/>
		<path fill="#196ECF" d="M319.6,363.2H159.8c-5.9,0-10.7,4.8-10.7,10.7c0,5.9,4.8,10.7,10.7,10.7h159.8c5.9,0,10.7-4.8,10.7-10.7
			C330.3,368,325.5,363.2,319.6,363.2z"/>
		<circle fill="#196ECF" cx="192.5" cy="217" r="20.4"/>
		<circle fill="#196ECF" cx="169.8" cy="294.5" r="20.4"/>
	</g>
</svg>
