<?xml version="1.0" encoding="utf-8"?>
<!-- Generator: Adobe Illustrator 19.0.1, SVG Export Plug-In . SVG Version: 6.00 Build 0)  -->
<svg version="1.1" xmlns="http://www.w3.org/2000/svg" xmlns:xlink="http://www.w3.org/1999/xlink" x="0px" y="0px"
	 viewBox="-49 141 512 512" style="enable-background:new -49 141 512 512;" xml:space="preserve">
	<g>
		<path fill="#122377" d="M369.9,241.8H42.6c-4.6,0-7.7,3.1-7.7,9.2v41.5c0,4.6,4.6,9.2,9.2,9.2h7.7V543c0,4.6,4.6,9.2,9.2,9.2h292
			c4.6,0,9.2-4.6,9.2-9.2V301.7h7.7c4.6,0,9.2-4.6,9.2-9.2V251C379.1,244.8,376,241.8,369.9,241.8 M154.7,535.3h-86v-47.7h86V535.3z
			 M154.7,478.4h-86v-89.1h86V478.4z M242.3,535.3h-69.2V397h69.2V535.3z M345.3,535.3h-86v-47.7h86V535.3z M345.3,478.4h-86v-89.1
			h86V478.4z M345.3,380.1h-86l0,0h-103l0,0H68.7v-78.4h276.6V380.1z M362.2,284.8h-9.2H61h-9.2v-26.1h310.5L362.2,284.8
			L362.2,284.8z"/>
		<path fill="#122377" d="M188.5,473.8c3.1,0,6.2-3.1,6.2-6.2c0-3.1-3.1-6.2-6.2-6.2s-6.2,3.1-6.2,6.2
			C182.4,470.7,185.5,473.8,188.5,473.8"/>
	</g>
</svg>
