<?xml version="1.0" encoding="utf-8"?>
<!-- Generator: Adobe Illustrator 18.1.1, SVG Export Plug-In . SVG Version: 6.00 Build 0)  -->
<svg version="1.1" id="Layer_1" xmlns="http://www.w3.org/2000/svg" xmlns:xlink="http://www.w3.org/1999/xlink" x="0px" y="0px"
	 viewBox="0 0 512 512" enable-background="new 0 0 512 512" xml:space="preserve">
<g>
	<g>
		<defs>
			<rect id="SVGID_1_" width="512" height="512"/>
		</defs>
		<clipPath id="SVGID_2_">
			<use xlink:href="#SVGID_1_"  overflow="visible"/>
		</clipPath>
		<path clip-path="url(#SVGID_2_)" fill="#122377" d="M309.1,469.4H202.7c-5.9,0-10.7-4.8-10.7-10.7V320.2H53.5
			c-5.9,0-10.7-4.8-10.7-10.6V202.9c0-5.9,4.8-10.7,10.7-10.7H192V53.5c0-5.9,4.8-10.7,10.7-10.7h106.5c5.9,0,10.7,4.8,10.7,10.7
			v138.7h138.7c5.9,0,10.7,4.8,10.7,10.7v106.7c0,5.9-4.8,10.6-10.7,10.6H319.8v138.6C319.8,464.6,315,469.4,309.1,469.4
			 M213.3,448.1h85.2V309.6c0-5.9,4.8-10.7,10.7-10.7h138.7v-85.3H309.1c-5.9,0-10.7-4.8-10.7-10.7V64.2h-85.2v138.7
			c0,5.9-4.8,10.7-10.6,10.7H64.2v85.3h138.5c5.9,0,10.6,4.8,10.6,10.7V448.1z"/>
	</g>
</g>
</svg>
