<?xml version="1.0" encoding="utf-8"?>
<!-- Generator: Adobe Illustrator 18.1.1, SVG Export Plug-In . SVG Version: 6.00 Build 0)  -->
<svg version="1.1" id="Layer_1" xmlns="http://www.w3.org/2000/svg" xmlns:xlink="http://www.w3.org/1999/xlink" x="0px" y="0px"
	 viewBox="0 0 512 512" enable-background="new 0 0 512 512" xml:space="preserve">
<g>
	<g>
		<g>
			<g>
				<g>
					<g>
						<g>
							<g>
								<g>
									<g>
										<g>
											<g>
												<g>
													<g>
														<g>
															<g>
																<g>
																	<g>
																		<g>
																			<g>
																				<g>
																					<g>
																						<g>
																							<path fill="#122377" d="M190.8,188.2c0.9-19.1,3.3-28.9,9.8-39c11-17.3,30.1-26.8,53.1-26.8
																								c35.8,0,59,21.2,59,53.6c0,13.4-3.3,23.9-10.4,33.4c-4.2,6.3-5.4,7.1-22.1,23.5
																								c-13.7,12.5-16.4,20-16.4,43.5h-23.2c0.9-33.1,3.3-38.1,31-65.6c11.6-11.6,15.8-20.6,15.8-32.8
																								c0-20.9-13.4-34.3-34-34.3c-24.4,0-37.3,14.6-39.4,44.4H190.8z M268,319.1c0,9.2-7.5,17-16.4,17
																								c-8.4,0-15.8-7.7-15.8-17c0-9.2,7.5-17,16.1-17C260.9,302.1,268,309.9,268,319.1z"/>
																						</g>
																					</g>
																				</g>
																			</g>
																		</g>
																	</g>
																</g>
															</g>
														</g>
													</g>
												</g>
											</g>
										</g>
									</g>
								</g>
							</g>
						</g>
					</g>
				</g>
			</g>
		</g>
		<g>
			<g>
				<g>
					<g>
						<g>
							<g>
								<g>
									<g>
										<g>
											<g>
												<g>
													<g>
														<g>
															<g>
																<g>
																	<g>
																		<g>
																			<g>
																				<g>
																					<g>
																						<g>
																							<path fill="#122377" d="M144.1,448.1L144.1,448.1c-6.2,0-11.2-5-11.2-11.1v-66.8
																								c-55-26.5-90.2-82.2-90.2-143.7c0-89.6,72.9-162.5,162.5-162.5h101.6c89.6,0,162.5,72.9,162.5,162.5
																								c0,87.9-71.5,159.5-159.5,159.5h-84l-74.6,59.7C149.2,447.2,146.7,448.1,144.1,448.1z M205.2,85.3
																								c-77.8,0-141.1,63.3-141.1,141.1c0,55.2,32.8,105,83.4,126.9c1.8,0.8,3.3,2,4.4,3.6l0.3,0.4
																								c1.3,1.8,2,4,2,6.2v52.2l60.9-48.7c0.9-0.8,2-1.3,3.1-1.7l0.4-0.1c1.1-0.4,2.3-0.6,3.6-0.6h87.5
																								c76.2,0,138.1-62,138.1-138.1c0-77.8-63.3-141.1-141.1-141.1H205.2z"/>
																						</g>
																					</g>
																				</g>
																			</g>
																		</g>
																	</g>
																</g>
															</g>
														</g>
													</g>
												</g>
											</g>
										</g>
									</g>
								</g>
							</g>
						</g>
					</g>
				</g>
			</g>
		</g>
	</g>
</g>
</svg>
