<?xml version="1.0" encoding="utf-8"?>
<!-- Generator: Adobe Illustrator 18.1.1, SVG Export Plug-In . SVG Version: 6.00 Build 0)  -->
<svg version="1.1" id="Artwork" xmlns="http://www.w3.org/2000/svg" xmlns:xlink="http://www.w3.org/1999/xlink" x="0px" y="0px"
	 viewBox="0 0 512 512" enable-background="new 0 0 512 512" xml:space="preserve">
<path fill="#B10C00" d="M256,42.2c-118,0-214,96-214,214c0,118,96,214,214,214c118,0,214-96,214-214C470,138.2,374,42.2,256,42.2z
	 M384.1,276.7L127.2,277c0,0-0.1,0-0.1,0c-11.8,0-21.3-8.9-21.3-20.6c0-11.8,9.5-20.9,21.2-20.9l256.9-0.5c0,0,0.1,0,0.1,0
	c11.8,0,21.3,9,21.3,20.8C405.4,267.5,395.9,276.6,384.1,276.7z"/>
<rect fill="none" width="512" height="512"/>
</svg>
