<?xml version="1.0" encoding="utf-8"?>
<!-- Generator: Adobe Illustrator 18.1.1, SVG Export Plug-In . SVG Version: 6.00 Build 0)  -->
<svg version="1.1" id="Artwork" xmlns="http://www.w3.org/2000/svg" xmlns:xlink="http://www.w3.org/1999/xlink" x="0px" y="0px"
	 viewBox="0 0 512 512" enable-background="new 0 0 512 512" xml:space="preserve">
<g>
	<path fill="#FFFFFF" d="M459.8,428.3L354,322.4c51.1-66.7,46.3-162.8-14.7-223.8c-32.2-32.2-75-49.9-120.5-49.9
		S130.5,66.4,98.4,98.6C66.2,130.8,48.5,173.5,48.5,219s17.7,88.3,49.9,120.4c32.2,32.2,74.9,49.9,120.4,49.9
		c38.7,0,75.3-12.9,105.3-36.5l105.6,105.6c4.2,4.2,9.6,6.2,15.1,6.2s10.9-2.1,15.1-6.2C468.2,450.1,468.2,436.6,459.8,428.3z
		 M309.1,309.3c-24.1,24.1-56.2,37.4-90.3,37.4s-66.2-13.3-90.3-37.4S91.1,253.1,91.1,219c0-34.1,13.3-66.2,37.4-90.3
		s56.2-37.4,90.3-37.4s66.2,13.3,90.3,37.4C358.9,178.5,358.9,259.5,309.1,309.3z"/>
	<rect fill="none" width="512" height="512"/>
</g>
</svg>
