<?xml version="1.0" encoding="utf-8"?>
<!-- Generator: Adobe Illustrator 18.1.1, SVG Export Plug-In . SVG Version: 6.00 Build 0)  -->
<svg version="1.1" id="Layer_1" xmlns="http://www.w3.org/2000/svg" xmlns:xlink="http://www.w3.org/1999/xlink" x="0px" y="0px"
	 viewBox="0 0 354.2 273.7" enable-background="new 0 0 354.2 273.7" xml:space="preserve">
<g>
	<g>
		<g>
			<path fill="#173B87" d="M102.4,185.7h8.6v1.2c-2.3,0.1-2.5,0.6-2.5,2.4v15.4c0,3.3,1.9,5.1,4.6,5.1c3.1,0,4.9-1.9,4.9-5.1v-15
				c0-1.9-0.6-2.7-2.8-2.8v-1.2h6.9v1.2c-2.2,0.1-2.8,0.9-2.8,2.8v14.2c0,4.4-2,7.1-6.9,7.1c-5,0-7.4-2.7-7.4-7.2v-14.4
				c0-1.9-0.2-2.3-2.6-2.4V185.7z"/>
			<path fill="#173B87" d="M121.5,210.3v-1.2c1.7-0.1,2.3-0.7,2.3-1.8v-11.2c0-1.5-0.4-1.8-2.4-1.9v-1.1l5.2-0.2v3.5h0.1
				c1-2,2.4-3.7,4.8-3.7c3,0,4.4,1.9,4.4,5.1v9.5c0,1.2,0.5,1.7,2.2,1.8v1.2h-5.3v-12.8c0-2.4-0.9-3.2-2.1-3.2c-1.9,0-3.8,2.5-3.8,6
				v7c0,1.1,0.6,1.7,2.3,1.8v1.2H121.5z"/>
			<path fill="#173B87" d="M139,210.3v-1.2c1.7-0.1,2.3-0.7,2.3-1.8V196c0-1.5-0.4-1.8-2.3-1.9V193l5.4-0.2v14.6
				c0,1.1,0.6,1.7,2.3,1.8v1.2H139z M144.3,187.7c0,1.4-0.8,2.3-1.8,2.3c-1.1,0-1.8-0.9-1.8-2.3c0-1.4,0.8-2.3,1.8-2.3
				C143.6,185.4,144.3,186.3,144.3,187.7"/>
			<path fill="#173B87" d="M152.2,186.6v6.6h4.3v1.3h-4.3v12.6c0,1.6,0.5,2.2,1.5,2.2c1.2,0,2.1-0.8,2.1-4.6v-1h1.2v1.7
				c0,3.6-1.3,5.2-4,5.2c-2.4,0-3.8-1.5-3.8-4.4v-11.9h-2.2v-1.1c2.6-1.1,3.9-2.3,4.2-6.9H152.2z"/>
			<path fill="#173B87" d="M161.7,200.3c0-4.6,1.4-6.4,3.4-6.4c1.9,0,3,1.8,3,6.4H161.7z M171.6,201.7c0-5.2-2.5-8.9-6.5-8.9
				c-4.1,0-6.9,3.7-6.9,9c0,4.5,2.9,9,7.4,9c4,0,5.8-3.1,6.1-6.3l-1.2-0.2c-0.4,2.4-1.5,5.2-4.6,5.2c-2.4,0-4.2-2.7-4.2-7.8H171.6z"
				/>
			<path fill="#173B87" d="M176.9,201.9c0-5.5,1.3-7.7,3.3-7.7c2.2,0,3.5,2.7,3.5,7.7c0,6.2-1.9,7.7-3.8,7.7
				C178.1,209.6,176.9,207.4,176.9,201.9 M181.3,186.8c1.9,0.1,2.3,0.3,2.3,1.9v6.4l-0.1,0c-0.7-1.4-1.9-2.4-3.6-2.4
				c-3.8,0-6.6,3.9-6.6,9.1c0,5.6,3,8.9,6.2,8.9c2.2,0,3.4-1.3,4.2-2.9h0.1v2.5l5-0.2V209c-1.4,0-2.1-0.5-2.1-2.5v-21l-5.4,0.2
				V186.8z"/>
			<path fill="#173B87" d="M189.7,210.3v-1.2c2.2-0.1,2.5-0.6,2.5-2.4v-17.5c0-1.9-0.4-2.3-2.5-2.4v-1.2h8.7v1.2
				c-2.2,0.1-2.6,0.6-2.6,2.4v7.4h7.7v-7.4c0-1.9-0.4-2.3-2.7-2.4v-1.2h8.7v1.2c-2.2,0.1-2.5,0.6-2.5,2.4v17.5
				c0,1.9,0.4,2.3,2.5,2.4v1.2h-8.7v-1.2c2.2-0.1,2.7-0.6,2.7-2.4v-8.7h-7.7v8.7c0,1.9,0.4,2.3,2.6,2.4v1.2H189.7z"/>
			<path fill="#173B87" d="M213.5,200.3c0-4.6,1.4-6.4,3.4-6.4c1.9,0,3,1.8,3,6.4H213.5z M223.4,201.7c0-5.2-2.5-8.9-6.5-8.9
				c-4,0-6.9,3.7-6.9,9c0,4.5,2.9,9,7.4,9c4,0,5.8-3.1,6.1-6.3l-1.2-0.2c-0.4,2.4-1.5,5.2-4.6,5.2c-2.4,0-4.2-2.7-4.2-7.8H223.4z"/>
			<path fill="#173B87" d="M232.7,203.2c0,4.1-1.7,6.2-3.5,6.2c-1.1,0-2-0.9-2-2.8c0-3.1,2.6-4.4,5.4-5.4V203.2z M237.5,205.4
				c-0.1,2.6-0.4,3.4-1,3.4c-0.5,0-0.7-0.5-0.7-1.5v-10c0-2.7-1.5-4.5-5.6-4.5c-3.1,0-5.4,1.9-5.4,4.4c0,1.4,0.7,2.2,1.7,2.2
				c1,0,1.8-0.8,1.8-2.1c0-1-0.4-1.9-1.5-2c0.8-0.9,1.8-1.3,3-1.3c1.9,0,2.8,0.9,2.8,2.9v2.9c-3.1,1.2-8.7,2.8-8.7,6.9
				c0,2.4,1.6,4,4.4,4c2.5,0,3.6-1.2,4.4-2.8h0.1c0.2,1.9,1.2,2.8,2.9,2.8c2.2,0,3-1.6,3-5.4L237.5,205.4z"/>
			<path fill="#173B87" d="M238.2,210.3v-1.2c1.7-0.1,2.3-0.7,2.3-1.8v-18.6c0-1.2-0.6-1.9-2.4-1.9v-1.1l5.4-0.2v21.9
				c0,1.1,0.6,1.7,2.3,1.8v1.2H238.2z"/>
			<path fill="#173B87" d="M251.1,186.6v6.6h4.3v1.3h-4.3v12.6c0,1.6,0.5,2.2,1.5,2.2c1.2,0,2.1-0.8,2.1-4.6v-1h1.2v1.7
				c0,3.6-1.3,5.2-4,5.2c-2.4,0-3.8-1.5-3.8-4.4v-11.9h-2.2v-1.1c2.6-1.1,3.9-2.3,4.2-6.9H251.1z"/>
			<path fill="#173B87" d="M255.7,210.3v-1.2c1.7-0.1,2.3-0.7,2.3-1.8v-18.7c0-1.5-0.4-1.8-2.4-1.9v-1.1l5.4-0.2V196h0.1
				c0.7-1.6,2.1-3.2,4.5-3.2c2.8,0,4.5,1.9,4.5,5.1v9.5c0,1.1,0.6,1.7,2.2,1.8v1.2H267v-12.6c0-2.5-0.9-3.3-2.2-3.3
				c-1.8,0-3.8,2.4-3.8,5.8v7.2c0,1.1,0.6,1.7,2.3,1.8v1.2H255.7z"/>
			<path fill="#173B87" d="M285.6,204.4c-0.3,3.4-1.9,6.4-5.9,6.4c-3.6,0-7-3.2-7-8.6c0-4.5,3.1-9.5,7.4-9.5c3.1,0,5,1.9,5,4.7
				c0,1.7-0.5,2.6-1.8,2.6c-1,0-1.7-0.9-1.7-2.2c0-1.5,0.5-2.2,1.5-2.2c0.3,0,0.4,0.1,0.5,0.1l0.1-0.1c-0.5-1.3-1.7-2-3-2
				c-2.7,0-4.5,2.7-4.5,7.8c0,6.1,1.9,7.8,4,7.8c2.9,0,3.8-2.7,4.2-5.2L285.6,204.4z"/>
			<path fill="#173B87" d="M295.6,203.2c0,4.1-1.7,6.2-3.5,6.2c-1.1,0-2-0.9-2-2.9c0-3.1,2.6-4.4,5.5-5.4V203.2z M300.5,205.4
				c-0.1,2.6-0.4,3.4-1,3.4c-0.5,0-0.8-0.5-0.8-1.5v-10.1c0-2.7-1.5-4.5-5.6-4.5c-3.2,0-5.4,1.9-5.4,4.4c0,1.5,0.7,2.2,1.7,2.2
				c1,0,1.8-0.8,1.8-2.1c0-1.1-0.4-1.9-1.5-2c0.8-0.9,1.8-1.3,3.1-1.3c1.9,0,2.9,0.9,2.9,3v3c-3.1,1.1-8.8,2.8-8.8,6.9
				c0,2.4,1.6,4.1,4.4,4.1c2.5,0,3.6-1.2,4.5-2.8h0.1c0.2,2,1.2,2.8,2.9,2.8c2.2,0,2.9-1.6,2.9-5.4L300.5,205.4z"/>
			<path fill="#173B87" d="M302.1,210.4v-1.1c1.5-0.1,2.1-0.7,2.1-1.8v-9.8c0-2.5-0.4-3.2-2.2-3.3v-1.2l5-0.2v4.2h0.1
				c0.5-1.9,1.7-4.4,3.9-4.4c1.3,0,2.6,1.1,2.6,3.1c0,1.6-0.8,2.3-1.7,2.3c-0.8,0-1.6-0.5-1.6-2.1c0-0.9,0.5-1.8,1.5-1.8
				c-0.2-0.3-0.5-0.4-0.9-0.4c-2.4,0-3.5,5.3-3.5,8.5v5.1c0,1.1,0.6,1.7,3,1.8v1.1H302.1z"/>
			<path fill="#173B87" d="M317,200.3c0-4.7,1.4-6.5,3.4-6.5c1.9,0,3,1.8,3,6.5H317z M326.9,201.7c0-5.2-2.5-9-6.5-9
				c-4.1,0-6.9,3.7-6.9,9.1c0,4.5,2.9,9,7.4,9c4,0,5.8-3.1,6.1-6.3l-1.1-0.2c-0.4,2.4-1.5,5.2-4.6,5.2c-2.4,0-4.2-2.7-4.2-7.7H326.9
				z"/>
			<path fill="#173B87" d="M328.2,188.9c1.3,0,2.3,1,2.3,2.3c0,1.3-1,2.3-2.3,2.3c-1.3,0-2.3-1-2.3-2.3
				C325.9,189.9,326.9,188.9,328.2,188.9 M328.2,188.5c-1.5,0-2.7,1.2-2.7,2.7c0,1.5,1.2,2.7,2.7,2.7c1.5,0,2.7-1.2,2.7-2.7
				C330.9,189.7,329.7,188.5,328.2,188.5 M327.7,191.3h0.5c0.1,0,0.4,0,0.5,0.3c0,0.4,0,0.8,0.1,1h0.5c-0.1-0.2-0.1-0.7-0.1-0.8
				c0-0.6-0.2-0.7-0.5-0.8v0c0.4-0.1,0.7-0.4,0.7-0.7c0-0.4-0.3-0.8-0.9-0.8h-1.2v3.1h0.5V191.3z M327.7,190h0.6
				c0.3,0,0.4,0.2,0.4,0.5c0,0.3-0.1,0.5-0.4,0.5h-0.6V190z"/>
		</g>
		<g>
			<g>
				<path fill="#173B87" d="M103.3,130.7V75.8H118v54.7c0,14.3,7,21.8,18.4,21.8c11.1,0,18.2-7.2,18.2-21.3V75.8h14.6v54.4
					c0,23.8-13.1,35.7-33.1,35.7C116.3,165.9,103.3,153.9,103.3,130.7z"/>
				<path fill="#173B87" d="M184.1,75.8h14.7v37.2h34.8V75.8h14.7v88.7h-14.7v-37.8h-34.8v37.8h-14.7V75.8z"/>
				<path fill="#173B87" d="M260.7,120.7v-0.9c0-26.9,16.7-45.2,39.7-45.2c12.4,0,20.7,4.4,27.9,11l-8.9,11.3
					c-5.2-4.8-11-8.6-19-8.6c-13.9,0-24.4,12.7-24.4,31.6v0.5c0,19.3,10.5,31.8,24.4,31.8c8.5,0,14.1-3.9,19.6-9.3l8.6,10.4
					c-7.7,8-16.7,12.5-29,12.5C276.9,165.8,260.7,147.8,260.7,120.7z"/>
			</g>
		</g>
	</g>
	<g>
		<path fill="#173B87" d="M31.5,164.5L31.5,164.5h0.1c0.1,0,0.1,0,0.1,0c0.1,0,0.1,0,0.2,0c0.1,0,0.1,0,0.2,0c0.1,0,0.1,0,0.2,0
			c0.1,0,0.1,0,0.2,0c0,0,0.1,0,0.1,0c0.1,0,0.1,0,0.2,0c0,0,0.1,0,0.1,0c0.1,0,0.2,0,0.2,0c0,0,0.1,0,0.1,0c0.1,0,0.2,0,0.3,0
			c0.1,0,0.1,0,0.2,0c0.1,0,0.2,0,0.3-0.1c0,0,0.1,0,0.1,0c0.1,0,0.2,0,0.3-0.1c0,0,0.1,0,0.2-0.1c0.1,0,0.2-0.1,0.3-0.1
			c0,0,0.1,0,0.1-0.1c0.1,0,0.2-0.1,0.3-0.1c0.1,0,0.1,0,0.2-0.1c0.1,0,0.2-0.1,0.3-0.1c0,0,0.1,0,0.1-0.1c0.1-0.1,0.2-0.1,0.3-0.2
			c0,0,0.1,0,0.1-0.1c0.1,0,0.2-0.1,0.3-0.2c0,0,0.1-0.1,0.1-0.1c0.1-0.1,0.2-0.1,0.3-0.2c0,0,0.1-0.1,0.1-0.1
			c0.1-0.1,0.2-0.2,0.3-0.2c0.1,0,0.1-0.1,0.2-0.1c0.1-0.1,0.2-0.2,0.3-0.3c0.1,0,0.1-0.1,0.2-0.1c0.1-0.1,0.2-0.2,0.3-0.3
			c0.1-0.1,0.1-0.1,0.2-0.2c0.1-0.1,0.2-0.2,0.3-0.3c0.1-0.1,0.1-0.1,0.2-0.2c0.1-0.1,0.2-0.2,0.3-0.3c0.1-0.1,0.1-0.1,0.2-0.2
			c0.1-0.1,0.2-0.2,0.3-0.4c0.1-0.1,0.1-0.1,0.2-0.2c0.1-0.1,0.2-0.2,0.3-0.4c0.1-0.1,0.1-0.2,0.2-0.2c0.1-0.1,0.2-0.3,0.3-0.4
			c0.1-0.1,0.1-0.2,0.2-0.3c0.1-0.2,0.2-0.3,0.3-0.4c0.1-0.1,0.1-0.2,0.2-0.3c0.1-0.2,0.2-0.3,0.3-0.5c0.1-0.1,0.1-0.2,0.2-0.3
			c0.1-0.2,0.2-0.3,0.3-0.5c0.1-0.1,0.1-0.3,0.2-0.4c0.1-0.2,0.2-0.3,0.3-0.5c0.1-0.1,0.1-0.3,0.2-0.4c0.1-0.2,0.2-0.3,0.2-0.5
			c0.1-0.2,0.1-0.3,0.2-0.5c0.1-0.2,0.2-0.3,0.2-0.5c0.1-0.2,0.1-0.3,0.2-0.5c0.1-0.2,0.2-0.4,0.2-0.6c0.1-0.2,0.1-0.4,0.2-0.5
			c0.1-0.2,0.2-0.4,0.2-0.6c0.1-0.2,0.2-0.5,0.2-0.8c0-0.2,0.1-0.3,0.2-0.5c0.1-0.4,0.3-0.9,0.4-1.3c1.8-6.5,2.2-19.5,2.2-28.2V64.7
			L21,79.2v57.2c0,21.8,3.9,27.1,8.8,27.9c0,0,0,0-0.1,0L31.5,164.5z"/>
		<path fill="#838E98" d="M38.3,170.4c10.7-1.4,16.9-13.3,18.4-19.1c2.4-8,2.8-18.1,2.8-29.4V58.6l-11.4,6.1l6,1.3v50.8
			c0,13.1-0.3,24.5-2.4,32.1c-3,10.7-8.4,15.1-12.2,16.5l-9.7-1.1c0,0,0,0-0.1,0c1,3.1,3.4,5.4,6.2,5.9L38.3,170.4z"/>
		<path fill="#838E98" d="M35.9,170.2c1,2.6,3.4,4.8,6.1,5.5l2.5,0.2c11.2-0.1,18.5-11,21.1-16.7c3.8-8.5,5.6-20.5,5.6-37.8V52.4
			l-11.6,6.2l6.2,1.4v58.9c0,14.7-0.6,27.2-4.2,36.5c-3.1,8-8.8,14.2-15.6,15.9l-7.6-0.9L35.9,170.2z"/>
		<path fill="#838E98" d="M71.1,52.4l6.3,1.4v65.1c0,20-2,33.6-6.5,42.8c-4.2,8.6-11.2,14.2-17.8,15.3l-8.7-1l-2.5-0.2
			c2.1,3.5,5.7,5.4,9.7,5.5c5.4,0.2,9.8-2.1,14-4.9c13.2-9.1,17.4-29.5,17.4-57V46L71.1,52.4z"/>
	</g>
</g>
</svg>
