<svg xmlns="http://www.w3.org/2000/svg" xmlns:xlink="http://www.w3.org/1999/xlink" viewBox="0 0 200 40" enable-background="new 0 0 200 40"><symbol id="a" viewBox="0 -52.3 258 52.3"><g fill-rule="evenodd" clip-rule="evenodd"><path fill="#888D8D" d="M17.2-5.2l-2.2.2v-24.5c0-4.3-.4-8.1-1.2-11.3-.4-1.5-1.2-2.9-2.3-4.3-1.3-1.8-2.9-2.8-4.7-3.1l2.9-.2c2.3.4 4.3 2.4 6.1 6.2 1 2.9 1.5 7.6 1.5 14v23zm-13.2-40.6l3-.7c2.3 1.1 4 3.3 5 6.5.5 3 .8 7.2.8 12.7v19.5l-2.3.4 8.8 4.8v-26.4c0-6.8-.7-11.8-2-14.8-2.2-4.3-4.9-6.5-8.2-6.5l3.2-.5c3 .6 5.3 2.6 7 6 1.7 3.7 2.7 9.2 2.7 16.6v25.2l-2.2.5 4.2 2.5v-28.5c0-11.5-2.2-18.8-6.8-22-2-1.3-3.7-1.9-5.2-1.8-1.7 0-3 .7-3.9 2-1.2.3-1.9.9-2.3 2-1.2.2-1.9 1-2.2 2.2v.2h.4z"/><path fill="#263A7F" d="M10.5-7.3v-21.5c0-5-.3-8.7-.9-10.9-1.1-4-2.9-6-5.4-6.1h-.2c-.3 0-.6.1-.9.2-2.1.9-3.1 4.4-3.1 10.6v22l10.5 5.7z"/></g><path fill-rule="evenodd" clip-rule="evenodd" fill="#263A7F" d="M216.5-35c-1.1 0-1.6.7-1.6 2.1 0 1.2.5 2.3 1.4 3.1 1 .9 2.2 1.3 3.9 1.3 3.6 0 5.4-1.5 5.4-4.4v-9.8c0-1 .2-1.6.8-1.6.3 0 .6.2.8.7.1.4.2 1.3.3 2.6h1c0-1.9-.2-3.2-.6-4-.5-.8-1.2-1.2-2.4-1.2-1.7 0-2.6.9-2.8 2.8-.5-.9-1-1.5-1.6-2-.7-.6-1.7-.8-2.8-.8-1.3 0-2.3.4-3 1.1-.8.8-1.1 1.7-1.1 2.9 0 1.7 1 3.2 3.1 4.5.6.3 2.4 1.1 5.3 2.4v2.8c0 1.9-.9 2.8-2.6 2.8-1.3 0-2.3-.4-3-1.2.9 0 1.4-.6 1.4-2 0-.6-.2-1.1-.5-1.5-.4-.5-.9-.6-1.4-.6zm30.3 6.5c1.9 0 3.4-.8 4.6-2.5 1.2-1.6 1.8-3.7 1.8-6.2h-9.6c0-2.4.4-4.3 1.1-5.7.7-1.3 1.6-1.9 2.9-1.9 2.6 0 4.1 1.7 4.6 5.1l1.1-.4c-.2-1.7-.8-3.1-1.6-4.2-1.1-1.3-2.5-1.9-4.4-1.9-2 0-3.8.9-5.2 2.8-1.4 1.7-2.1 3.7-2.1 6 0 2.7.6 4.8 2 6.5 1.1 1.5 2.8 2.4 4.8 2.4zm2.8-7.5c0 4.1-1 6.2-2.9 6.2-2.2 0-3.3-2.1-3.3-6.2h6.2zm8 9.4c0 .6-.2 1.2-.7 1.6-.5.5-1.1.7-1.8.7-.6 0-1.1-.2-1.6-.7s-.7-1-.7-1.6c0-.7.2-1.3.7-1.8.4-.5 1-.7 1.6-.7.7 0 1.3.2 1.8.7.5.5.7 1.1.7 1.8zm-.4 1.8c.5-.5.8-1.1.8-1.9 0-.8-.3-1.5-.8-2s-1.2-.8-2-.8c-.7 0-1.4.3-1.9.8s-.8 1.2-.8 2c0 .7.3 1.3.8 1.9.5.5 1.1.8 1.9.8.8 0 1.5-.2 2-.8zm-1.3-1.1c0 .1 0 .2-.1.3-.1.1-.3.2-.4.2h-.6v-1.1h.6c.3 0 .5.2.5.6zm.6 0c0-.2-.1-.4-.2-.5-.1-.1-.3-.2-.5-.2.3 0 .5-.3.5-.9v-.3c0-.2.1-.3.2-.4h-.6c-.1.1-.1.5-.1 1.1 0 .2-.2.4-.5.4h-.5v-1.4h-.4v3.2h1.2c.2 0 .5-.1.7-.4.1-.3.2-.4.2-.6zm-46.1-5.6c.2 0 .4-.1.5-.2h.2c-.5 1.3-1.5 2-3 2-1.3 0-2.4-.7-3.1-2-.8-1.3-1.2-3.2-1.2-5.5 0-2.7.4-4.7 1.1-6 .7-1.1 1.6-1.6 2.6-1.6 2.3 0 3.8 1.7 4.2 5.1l1.1-.2c-.5-4.2-2.3-6.3-5.6-6.3-1.9 0-3.5.8-4.8 2.5-1.4 1.7-2.1 3.9-2.1 6.5 0 2.2.7 4.2 2 5.9 1.4 1.9 3.1 2.8 5.1 2.8 1.5 0 2.7-.4 3.6-1.3.9-.9 1.4-2 1.4-3.3 0-1.8-.6-2.6-1.8-2.6-.5 0-1 .2-1.2.6-.3.4-.5.9-.5 1.5.1 1.4.6 2.1 1.5 2.1zm7.4-12.7c.3-.5.8-.7 1.4-.7.9 0 1.7.5 2.3 1.5.7 1.1 1 2.7 1 4.6v1.9c-1.7-.6-2.9-1.2-3.7-1.9-1.1-.9-1.6-2-1.6-3.4 0-.8.2-1.5.6-2zm19.7 15.7c.7 0 1.2-.3 1.7-.9.5-.6.8-1.4.8-2.4 0-.7-.1-1.2-.4-1.6-.3-.4-.7-.6-1.1-.6-.4 0-.8.1-1.1.5-.3.4-.5.9-.5 1.6 0 .5.1.9.4 1.2.3.4.7.6 1.2.6-.1.2-.5.4-1.1.4-1 0-1.8-1-2.5-2.9-.5-1.6-.8-3.3-.8-5.1v-5.3c0-.6.2-1 .5-1.2.4-.3 1.2-.5 2.4-.6v-1h-8v1c.8.1 1.3.3 1.6.6.3.3.5.7.5 1.2v9.7c0 1.2-.2 2-.5 2.4-.3.5-.9.8-1.8.8v1l5 .4v-4.3c.3 1.2.7 2.1 1.3 2.9.5 1.1 1.4 1.6 2.4 1.6zm-52 5.7c-.3.2-.9.4-1.8.4v1l5.3.4v-10.4c1 2.1 2.4 3.1 4.4 3.1 1.3 0 2.4-.4 3.1-1.3.8-.9 1.2-2.1 1.2-3.6v-9.3c0-.5.1-.9.5-1.2.3-.3.9-.5 1.6-.6v-1h-5.1v12.3c0 2.1-.7 3.2-2.1 3.2-.9 0-1.8-.5-2.5-1.6-.8-1.1-1.1-2.4-1.1-4v-7.1c0-.5.2-.9.5-1.2.3-.3.9-.5 1.8-.6v-1h-7.5v1c.8.1 1.4.3 1.8.6.3.3.5.7.5 1.2v18.3c-.1.7-.3 1.2-.6 1.4zm-18.9 1.6l5.2.2v-21.5c0-.5.2-.9.5-1.2.3-.3.9-.5 1.8-.6v-1h-7.6v1l-.1-.3c-.5-.8-1.3-1.2-2.4-1.2-1.7 0-2.6.9-2.8 2.8-.5-.9-1-1.6-1.6-2-.7-.5-1.6-.8-2.8-.8-1.3 0-2.3.4-3.1 1.1-.8.7-1.1 1.7-1.1 2.9 0 1.8 1 3.2 3.1 4.5.9.6 2.7 1.3 5.4 2.2v3c0 1.9-.9 2.8-2.7 2.8-1.3 0-2.3-.4-3-1.2 1-.2 1.5-.8 1.5-2 0-.7-.2-1.2-.5-1.5-.3-.4-.8-.5-1.3-.5-.4 0-.8.2-1.1.5-.3.4-.5.9-.5 1.5 0 1.2.5 2.2 1.4 3 1 .8 2.3 1.2 3.9 1.2 3.5 0 5.2-1.5 5.2-4.4v-9.6c0-1 .3-1.5.9-1.5.6 0 .9 1.1.9 3.2h1.3c0-1.6-.2-2.8-.5-3.7.8.1 1.4.3 1.8.6.3.3.5.7.5 1.2v18.2c0 1.3-.8 1.9-2.3 1.9v1.2zm12.5-1v-6.3h4.2v-1.5h-4.2v-12.3c0-1.4.5-2.1 1.6-2.1.6 0 1 .3 1.3.8.4.7.6 1.9.6 3.6v1.1h1.2v-1.8c0-3.4-1.4-5.1-4.1-5.1-1.1 0-2 .4-2.7 1.1-.6.7-1 1.8-1 3.2v11.5h-2v1c1.4.6 2.3 1.3 2.9 2.2.7 1 1.1 2.5 1.1 4.5h1.1zm-53.8-2.5v-7.3h7.6v7.3c0 .9-.2 1.5-.5 1.8-.3.3-1 .5-2.1.6v1h8.5v-1c-1.1-.1-1.7-.3-2-.6-.3-.3-.5-.8-.5-1.8v-17c0-1 .1-1.6.5-1.9.3-.3.9-.5 2-.6v-1h-8.5v1c1.1.1 1.8.3 2.1.6.4.3.5 1 .5 1.9v8.5h-7.6v-8.5c0-1 .2-1.6.5-1.9.3-.3 1-.5 2-.6v-1h-8.4v1c1.1.1 1.8.3 2 .6.3.3.4.9.4 1.9v17c0 .9-.1 1.5-.4 1.8-.3.3-1 .5-2 .6v1h8.4v-1c-1.1-.1-1.8-.3-2-.6-.3-.3-.5-.9-.5-1.8zm-14.1 2.3v1l5.3.4v-20.5c0-1 .2-1.6.5-2 .3-.3.8-.5 1.5-.5v-1l-4.8-.2v2.5h-.1c-.9-2-2.2-3-4.1-3-1.6 0-3 .8-4.1 2.3-1.2 1.7-1.8 3.8-1.8 6.5 0 2.5.6 4.6 1.9 6.3 1.2 1.7 2.7 2.5 4.5 2.5 1.6 0 2.7-.8 3.5-2.3h.2v6.4c0 .7-.2 1.1-.5 1.4-.4.1-1.1.2-2 .2zm48.9-20.5c.7 1.1 1.1 2.6 1.1 4.5v2.1c-1.7-.6-2.9-1.2-3.7-1.9-1-.9-1.5-2-1.5-3.3 0-.9.2-1.7.5-2.2.3-.4.8-.6 1.4-.6.9-.1 1.6.4 2.2 1.4zm-14.2 13.7c-2.2 0-3.4-2.1-3.4-6.3h6.4c0 4.1-1 6.3-3 6.3zm-6.7-7.8c0 2.6.6 4.7 1.9 6.4 1.2 1.6 2.8 2.4 4.8 2.4 1.9 0 3.5-.8 4.6-2.4 1.1-1.6 1.7-3.6 1.7-6.3h-9.7c0-2.4.4-4.2 1.2-5.6.8-1.3 1.8-1.9 3-1.9 2.5 0 3.9 1.7 4.4 5.1l1.2-.4c-.2-1.7-.8-3.1-1.6-4.1-1.1-1.3-2.5-2-4.3-2-2.1 0-3.9.9-5.2 2.7-1.3 1.8-2 3.8-2 6.1zm-56.4 14.8v-6.3h4.2v-1.5h-4.2v-12.3c0-1.4.5-2.1 1.6-2.1.6 0 1.1.3 1.4.8.4.7.5 1.9.5 3.6v1.1h1.2v-1.8c0-3.4-1.3-5.1-4-5.1-1.1 0-2 .4-2.7 1.1-.6.7-.9 1.8-.9 3.2v11.5h-2.1v1c1.4.6 2.3 1.3 2.9 2.2.7 1 1.1 2.5 1.1 4.5h1zm30.8-14.8c0 2.4-.3 4.3-1 5.6-.6 1.3-1.5 2-2.6 2-2.1 0-3.1-2.5-3.1-7.6 0-5 1-7.5 3-7.5 1 0 1.9.5 2.5 1.5.8 1.3 1.2 3.3 1.2 6zm-18.1 8.8c1.9 0 3.5-.8 4.6-2.4 1.1-1.6 1.7-3.7 1.7-6.3h-9.6c0-2.4.4-4.2 1.2-5.6.7-1.3 1.7-1.9 3-1.9 2.4 0 3.9 1.7 4.4 5.1l1-.4c-.1-1.7-.6-3.1-1.5-4.1-1.1-1.3-2.5-2-4.2-2-2.1 0-3.9.9-5.2 2.7-1.3 1.7-2 3.8-2 6 0 2.6.6 4.7 1.9 6.4 1.1 1.7 2.7 2.5 4.7 2.5zm2.7-7.3c0 4.2-.9 6.3-2.8 6.3-2.2 0-3.3-2.1-3.3-6.3h6.1zm-22.9 12.4c0-.7-.2-1.2-.5-1.6-.3-.4-.8-.6-1.3-.6s-1 .2-1.3.6c-.3.4-.5 1-.5 1.6 0 .6.1 1.1.5 1.5.3.4.8.6 1.3.6s1-.2 1.3-.6c.3-.4.5-.9.5-1.5zm-32.5.7c-1.1-.1-1.8-.3-2-.6-.3-.3-.4-.8-.4-1.8v-15.1c0-1.5.4-2.8 1.2-3.7.8-.9 1.9-1.3 3.1-1.3 1.5 0 2.7.5 3.6 1.4.8.9 1.2 2.1 1.2 3.6v14.9c0 .9-.2 1.5-.6 1.9-.4.4-1.1.6-2.1.8v1h6.7v-1c-1-.1-1.7-.4-2.1-.8-.4-.4-.6-1-.6-1.9v-13.9c0-2.3-.5-4-1.5-5.1-1.1-1.2-2.9-1.8-5.2-1.8s-4.1.6-5.3 1.8c-1.3 1.2-1.8 3-1.8 5.2v14c0 .9-.2 1.5-.5 1.8-.3.3-1 .5-2.2.6v1h8.5v-1zm12-7.6c-.3.2-.9.3-1.8.4v1.1l5.1.1v-3.4c.6 1.1 1.2 2 1.8 2.5.8.7 1.8 1 2.9 1 2.8 0 4.2-1.6 4.2-4.9v-9.3c0-.6.2-1 .5-1.2.3-.2.9-.4 1.8-.5v-1h-5.3v12.5c0 2-.7 3-2.1 3-.9 0-1.8-.5-2.5-1.6-.8-1.2-1.2-2.6-1.2-4.1v-6.9c0-.5.2-.9.5-1.2.3-.3.9-.5 1.8-.6v-1h-7.5v1c.8.1 1.4.3 1.8.6.3.3.5.7.5 1.2v10.9c-.1.6-.2 1.1-.5 1.4zm17 .1c-.2.2-.8.3-1.8.5v1l5.3.2v-14.2c0-.5.2-.9.5-1.2.4-.3 1-.5 1.8-.6v-1h-7.6v1c.8.1 1.4.3 1.8.6.3.3.5.7.5 1.2v11.1c-.1.7-.2 1.2-.5 1.4z"/></symbol><use xlink:href="#a" width="258" height="52.3" y="-52.3" transform="scale(.764 -.765)" overflow="visible"/></svg>